<?xml version="1.0" encoding="UTF-8" standalone="no"?>
<!DOCTYPE svg PUBLIC "-//W3C//DTD SVG 1.1//EN"
 "http://www.w3.org/Graphics/SVG/1.1/DTD/svg11.dtd">
<!-- Generated by graphviz version 15.0.0 (20260523.1842)
 -->
<!-- Title: OTTER_MCU_HIERARCHY Pages: 1 -->
<svg width="836pt" height="1691pt"
 viewBox="0.00 0.00 836.00 1691.00" xmlns="http://www.w3.org/2000/svg" xmlns:xlink="http://www.w3.org/1999/xlink">
<g id="graph0" class="graph" transform="scale(1 1) rotate(0) translate(4 1687)">
<title>OTTER_MCU_HIERARCHY</title>
<polygon fill="white" stroke="none" points="-4,4 -4,-1687 831.75,-1687 831.75,4 -4,4"/>
<!-- inst_BranchGenerator_branch_addr_gen -->
<g id="node1" class="node">
<title>inst_BranchGenerator_branch_addr_gen</title>
<polygon fill="#fff7e6" stroke="#b5651d" points="685,-1164 584.25,-1164 584.25,-1160 580.25,-1160 580.25,-1156 584.25,-1156 584.25,-1136 580.25,-1136 580.25,-1132 584.25,-1132 584.25,-1128 685,-1128 685,-1164"/>
<polyline fill="none" stroke="#b5651d" points="584.25,-1160 588.25,-1160 588.25,-1156 584.25,-1156"/>
<polyline fill="none" stroke="#b5651d" points="584.25,-1136 588.25,-1136 588.25,-1132 584.25,-1132"/>
<text xml:space="preserve" text-anchor="middle" x="634.62" y="-1141.55" font-family="Helvetica,sans-Serif" font-size="11.00">branch_addr_gen</text>
</g>
<!-- mod_BAG -->
<g id="node35" class="node">
<title>mod_BAG</title>
<path fill="#eef7ff" stroke="#264653" stroke-width="1.4" d="M798.38,-1164C798.38,-1164 768.38,-1164 768.38,-1164 762.38,-1164 756.38,-1158 756.38,-1152 756.38,-1152 756.38,-1140 756.38,-1140 756.38,-1134 762.38,-1128 768.38,-1128 768.38,-1128 798.38,-1128 798.38,-1128 804.38,-1128 810.38,-1134 810.38,-1140 810.38,-1140 810.38,-1152 810.38,-1152 810.38,-1158 804.38,-1164 798.38,-1164"/>
<text xml:space="preserve" text-anchor="middle" x="783.38" y="-1141.55" font-family="Helvetica,sans-Serif" font-size="11.00">BAG</text>
</g>
<!-- inst_BranchGenerator_branch_addr_gen&#45;&gt;mod_BAG -->
<g id="edge1" class="edge">
<title>inst_BranchGenerator_branch_addr_gen&#45;&gt;mod_BAG</title>
<path fill="none" stroke="#6c757d" d="M685.4,-1146C685.4,-1146 747.26,-1146 747.26,-1146"/>
<polygon fill="#6c757d" stroke="#6c757d" points="747.26,-1148.45 754.26,-1146 747.26,-1143.55 747.26,-1148.45"/>
</g>
<!-- inst_BranchGenerator_branch_comp -->
<g id="node2" class="node">
<title>inst_BranchGenerator_branch_comp</title>
<polygon fill="#fff7e6" stroke="#b5651d" points="675.25,-1103 594,-1103 594,-1099 590,-1099 590,-1095 594,-1095 594,-1075 590,-1075 590,-1071 594,-1071 594,-1067 675.25,-1067 675.25,-1103"/>
<polyline fill="none" stroke="#b5651d" points="594,-1099 598,-1099 598,-1095 594,-1095"/>
<polyline fill="none" stroke="#b5651d" points="594,-1075 598,-1075 598,-1071 594,-1071"/>
<text xml:space="preserve" text-anchor="middle" x="634.62" y="-1080.55" font-family="Helvetica,sans-Serif" font-size="11.00">branch_comp</text>
</g>
<!-- mod_BCG -->
<g id="node36" class="node">
<title>mod_BCG</title>
<path fill="#eef7ff" stroke="#264653" stroke-width="1.4" d="M798.38,-1103C798.38,-1103 768.38,-1103 768.38,-1103 762.38,-1103 756.38,-1097 756.38,-1091 756.38,-1091 756.38,-1079 756.38,-1079 756.38,-1073 762.38,-1067 768.38,-1067 768.38,-1067 798.38,-1067 798.38,-1067 804.38,-1067 810.38,-1073 810.38,-1079 810.38,-1079 810.38,-1091 810.38,-1091 810.38,-1097 804.38,-1103 798.38,-1103"/>
<text xml:space="preserve" text-anchor="middle" x="783.38" y="-1080.55" font-family="Helvetica,sans-Serif" font-size="11.00">BCG</text>
</g>
<!-- inst_BranchGenerator_branch_comp&#45;&gt;mod_BCG -->
<g id="edge2" class="edge">
<title>inst_BranchGenerator_branch_comp&#45;&gt;mod_BCG</title>
<path fill="none" stroke="#6c757d" d="M675.67,-1085C675.67,-1085 747.57,-1085 747.57,-1085"/>
<polygon fill="#6c757d" stroke="#6c757d" points="747.57,-1087.45 754.57,-1085 747.57,-1082.55 747.57,-1087.45"/>
</g>
<!-- inst_Memory_MMIO_BLOCK -->
<g id="node3" class="node">
<title>inst_Memory_MMIO_BLOCK</title>
<polygon fill="#fff7e6" stroke="#b5651d" points="679,-158 590.25,-158 590.25,-154 586.25,-154 586.25,-150 590.25,-150 590.25,-130 586.25,-130 586.25,-126 590.25,-126 590.25,-122 679,-122 679,-158"/>
<polyline fill="none" stroke="#b5651d" points="590.25,-154 594.25,-154 594.25,-150 590.25,-150"/>
<polyline fill="none" stroke="#b5651d" points="590.25,-130 594.25,-130 594.25,-126 590.25,-126"/>
<text xml:space="preserve" text-anchor="middle" x="634.62" y="-135.55" font-family="Helvetica,sans-Serif" font-size="11.00">MMIO_BLOCK</text>
</g>
<!-- mod_OTTER_MMIO -->
<g id="node49" class="node">
<title>mod_OTTER_MMIO</title>
<path fill="#eef7ff" stroke="#264653" stroke-width="1.4" d="M815.75,-158C815.75,-158 751,-158 751,-158 745,-158 739,-152 739,-146 739,-146 739,-134 739,-134 739,-128 745,-122 751,-122 751,-122 815.75,-122 815.75,-122 821.75,-122 827.75,-128 827.75,-134 827.75,-134 827.75,-146 827.75,-146 827.75,-152 821.75,-158 815.75,-158"/>
<text xml:space="preserve" text-anchor="middle" x="783.38" y="-135.55" font-family="Helvetica,sans-Serif" font-size="11.00">OTTER_MMIO</text>
</g>
<!-- inst_Memory_MMIO_BLOCK&#45;&gt;mod_OTTER_MMIO -->
<g id="edge3" class="edge">
<title>inst_Memory_MMIO_BLOCK&#45;&gt;mod_OTTER_MMIO</title>
<path fill="none" stroke="#6c757d" d="M679.25,-140C679.25,-140 730.01,-140 730.01,-140"/>
<polygon fill="#6c757d" stroke="#6c757d" points="730.01,-142.45 737.01,-140 730.01,-137.55 730.01,-142.45"/>
</g>
<!-- inst_OTTER_MCU_ATOMIC_CTRL -->
<g id="node4" class="node">
<title>inst_OTTER_MCU_ATOMIC_CTRL</title>
<polygon fill="#fff7e6" stroke="#b5651d" points="306.5,-1683 182.5,-1683 182.5,-1679 178.5,-1679 178.5,-1675 182.5,-1675 182.5,-1655 178.5,-1655 178.5,-1651 182.5,-1651 182.5,-1647 306.5,-1647 306.5,-1683"/>
<polyline fill="none" stroke="#b5651d" points="182.5,-1679 186.5,-1679 186.5,-1675 182.5,-1675"/>
<polyline fill="none" stroke="#b5651d" points="182.5,-1655 186.5,-1655 186.5,-1651 182.5,-1651"/>
<text xml:space="preserve" text-anchor="middle" x="244.5" y="-1660.55" font-family="Helvetica,sans-Serif" font-size="11.00">MCU_ATOMIC_CTRL</text>
</g>
<!-- mod_AtomicController -->
<g id="node33" class="node">
<title>mod_AtomicController</title>
<path fill="#eef7ff" stroke="#264653" stroke-width="1.4" d="M503.25,-1683C503.25,-1683 431,-1683 431,-1683 425,-1683 419,-1677 419,-1671 419,-1671 419,-1659 419,-1659 419,-1653 425,-1647 431,-1647 431,-1647 503.25,-1647 503.25,-1647 509.25,-1647 515.25,-1653 515.25,-1659 515.25,-1659 515.25,-1671 515.25,-1671 515.25,-1677 509.25,-1683 503.25,-1683"/>
<text xml:space="preserve" text-anchor="middle" x="467.12" y="-1660.55" font-family="Helvetica,sans-Serif" font-size="11.00">AtomicController</text>
</g>
<!-- inst_OTTER_MCU_ATOMIC_CTRL&#45;&gt;mod_AtomicController -->
<g id="edge4" class="edge">
<title>inst_OTTER_MCU_ATOMIC_CTRL&#45;&gt;mod_AtomicController</title>
<path fill="none" stroke="#6c757d" d="M306.81,-1665C306.81,-1665 410.1,-1665 410.1,-1665"/>
<polygon fill="#6c757d" stroke="#6c757d" points="410.1,-1667.45 417.1,-1665 410.1,-1662.55 410.1,-1667.45"/>
</g>
<!-- inst_OTTER_MCU_ATOMIC_DECODE_SLOT0 -->
<g id="node5" class="node">
<title>inst_OTTER_MCU_ATOMIC_DECODE_SLOT0</title>
<polygon fill="#fff7e6" stroke="#b5651d" points="336.12,-1622 152.88,-1622 152.88,-1618 148.88,-1618 148.88,-1614 152.88,-1614 152.88,-1594 148.88,-1594 148.88,-1590 152.88,-1590 152.88,-1586 336.12,-1586 336.12,-1622"/>
<polyline fill="none" stroke="#b5651d" points="152.88,-1618 156.88,-1618 156.88,-1614 152.88,-1614"/>
<polyline fill="none" stroke="#b5651d" points="152.88,-1594 156.88,-1594 156.88,-1590 152.88,-1590"/>
<text xml:space="preserve" text-anchor="middle" x="244.5" y="-1599.55" font-family="Helvetica,sans-Serif" font-size="11.00">MCU_ATOMIC_DECODE_SLOT0</text>
</g>
<!-- mod_AtomicDecode -->
<g id="node34" class="node">
<title>mod_AtomicDecode</title>
<path fill="#eef7ff" stroke="#264653" stroke-width="1.4" d="M498.38,-1592C498.38,-1592 435.88,-1592 435.88,-1592 429.88,-1592 423.88,-1586 423.88,-1580 423.88,-1580 423.88,-1568 423.88,-1568 423.88,-1562 429.88,-1556 435.88,-1556 435.88,-1556 498.38,-1556 498.38,-1556 504.38,-1556 510.38,-1562 510.38,-1568 510.38,-1568 510.38,-1580 510.38,-1580 510.38,-1586 504.38,-1592 498.38,-1592"/>
<text xml:space="preserve" text-anchor="middle" x="467.12" y="-1569.55" font-family="Helvetica,sans-Serif" font-size="11.00">AtomicDecode</text>
</g>
<!-- inst_OTTER_MCU_ATOMIC_DECODE_SLOT0&#45;&gt;mod_AtomicDecode -->
<g id="edge5" class="edge">
<title>inst_OTTER_MCU_ATOMIC_DECODE_SLOT0&#45;&gt;mod_AtomicDecode</title>
<path fill="none" stroke="#6c757d" d="M336.5,-1607C397.64,-1607 466.75,-1607 466.75,-1607 466.75,-1607 466.75,-1600.94 466.75,-1600.94"/>
<polygon fill="#6c757d" stroke="#6c757d" points="469.2,-1600.94 466.75,-1593.94 464.3,-1600.94 469.2,-1600.94"/>
</g>
<!-- inst_OTTER_MCU_ATOMIC_DECODE_SLOT1 -->
<g id="node6" class="node">
<title>inst_OTTER_MCU_ATOMIC_DECODE_SLOT1</title>
<polygon fill="#fff7e6" stroke="#b5651d" points="336.12,-1561 152.88,-1561 152.88,-1557 148.88,-1557 148.88,-1553 152.88,-1553 152.88,-1533 148.88,-1533 148.88,-1529 152.88,-1529 152.88,-1525 336.12,-1525 336.12,-1561"/>
<polyline fill="none" stroke="#b5651d" points="152.88,-1557 156.88,-1557 156.88,-1553 152.88,-1553"/>
<polyline fill="none" stroke="#b5651d" points="152.88,-1533 156.88,-1533 156.88,-1529 152.88,-1529"/>
<text xml:space="preserve" text-anchor="middle" x="244.5" y="-1538.55" font-family="Helvetica,sans-Serif" font-size="11.00">MCU_ATOMIC_DECODE_SLOT1</text>
</g>
<!-- inst_OTTER_MCU_ATOMIC_DECODE_SLOT1&#45;&gt;mod_AtomicDecode -->
<g id="edge6" class="edge">
<title>inst_OTTER_MCU_ATOMIC_DECODE_SLOT1&#45;&gt;mod_AtomicDecode</title>
<path fill="none" stroke="#6c757d" d="M336.5,-1540.5C397.64,-1540.5 466.75,-1540.5 466.75,-1540.5 466.75,-1540.5 466.75,-1547.17 466.75,-1547.17"/>
<polygon fill="#6c757d" stroke="#6c757d" points="464.3,-1547.17 466.75,-1554.17 469.2,-1547.17 464.3,-1547.17"/>
</g>
<!-- inst_OTTER_MCU_FETCH_SLOT0_BUILDER -->
<g id="node7" class="node">
<title>inst_OTTER_MCU_FETCH_SLOT0_BUILDER</title>
<polygon fill="#fff7e6" stroke="#b5651d" points="334.62,-1500 154.38,-1500 154.38,-1496 150.38,-1496 150.38,-1492 154.38,-1492 154.38,-1472 150.38,-1472 150.38,-1468 154.38,-1468 154.38,-1464 334.62,-1464 334.62,-1500"/>
<polyline fill="none" stroke="#b5651d" points="154.38,-1496 158.38,-1496 158.38,-1492 154.38,-1492"/>
<polyline fill="none" stroke="#b5651d" points="154.38,-1472 158.38,-1472 158.38,-1468 154.38,-1468"/>
<text xml:space="preserve" text-anchor="middle" x="244.5" y="-1477.55" font-family="Helvetica,sans-Serif" font-size="11.00">MCU_FETCH_SLOT0_BUILDER</text>
</g>
<!-- mod_FrontendPacketBuilder -->
<g id="node44" class="node">
<title>mod_FrontendPacketBuilder</title>
<path fill="#eef7ff" stroke="#264653" stroke-width="1.4" d="M518.25,-1470C518.25,-1470 416,-1470 416,-1470 410,-1470 404,-1464 404,-1458 404,-1458 404,-1446 404,-1446 404,-1440 410,-1434 416,-1434 416,-1434 518.25,-1434 518.25,-1434 524.25,-1434 530.25,-1440 530.25,-1446 530.25,-1446 530.25,-1458 530.25,-1458 530.25,-1464 524.25,-1470 518.25,-1470"/>
<text xml:space="preserve" text-anchor="middle" x="467.12" y="-1447.55" font-family="Helvetica,sans-Serif" font-size="11.00">FrontendPacketBuilder</text>
</g>
<!-- inst_OTTER_MCU_FETCH_SLOT0_BUILDER&#45;&gt;mod_FrontendPacketBuilder -->
<g id="edge7" class="edge">
<title>inst_OTTER_MCU_FETCH_SLOT0_BUILDER&#45;&gt;mod_FrontendPacketBuilder</title>
<path fill="none" stroke="#6c757d" d="M334.98,-1485C374.39,-1485 411.75,-1485 411.75,-1485 411.75,-1485 411.75,-1478.94 411.75,-1478.94"/>
<polygon fill="#6c757d" stroke="#6c757d" points="414.2,-1478.94 411.75,-1471.94 409.3,-1478.94 414.2,-1478.94"/>
</g>
<!-- inst_OTTER_MCU_FETCH_SLOT0_EXPANDER -->
<g id="node8" class="node">
<title>inst_OTTER_MCU_FETCH_SLOT0_EXPANDER</title>
<polygon fill="#fff7e6" stroke="#b5651d" points="340.62,-1378 148.38,-1378 148.38,-1374 144.38,-1374 144.38,-1370 148.38,-1370 148.38,-1350 144.38,-1350 144.38,-1346 148.38,-1346 148.38,-1342 340.62,-1342 340.62,-1378"/>
<polyline fill="none" stroke="#b5651d" points="148.38,-1374 152.38,-1374 152.38,-1370 148.38,-1370"/>
<polyline fill="none" stroke="#b5651d" points="148.38,-1350 152.38,-1350 152.38,-1346 148.38,-1346"/>
<text xml:space="preserve" text-anchor="middle" x="244.5" y="-1355.55" font-family="Helvetica,sans-Serif" font-size="11.00">MCU_FETCH_SLOT0_EXPANDER</text>
</g>
<!-- mod_RVCExpander -->
<g id="node51" class="node">
<title>mod_RVCExpander</title>
<path fill="#eef7ff" stroke="#264653" stroke-width="1.4" d="M498,-1348C498,-1348 436.25,-1348 436.25,-1348 430.25,-1348 424.25,-1342 424.25,-1336 424.25,-1336 424.25,-1324 424.25,-1324 424.25,-1318 430.25,-1312 436.25,-1312 436.25,-1312 498,-1312 498,-1312 504,-1312 510,-1318 510,-1324 510,-1324 510,-1336 510,-1336 510,-1342 504,-1348 498,-1348"/>
<text xml:space="preserve" text-anchor="middle" x="467.12" y="-1325.55" font-family="Helvetica,sans-Serif" font-size="11.00">RVCExpander</text>
</g>
<!-- inst_OTTER_MCU_FETCH_SLOT0_EXPANDER&#45;&gt;mod_RVCExpander -->
<g id="edge8" class="edge">
<title>inst_OTTER_MCU_FETCH_SLOT0_EXPANDER&#45;&gt;mod_RVCExpander</title>
<path fill="none" stroke="#6c757d" d="M341.01,-1363C400.99,-1363 466.75,-1363 466.75,-1363 466.75,-1363 466.75,-1356.94 466.75,-1356.94"/>
<polygon fill="#6c757d" stroke="#6c757d" points="469.2,-1356.94 466.75,-1349.94 464.3,-1356.94 469.2,-1356.94"/>
</g>
<!-- inst_OTTER_MCU_FETCH_SLOT1_BUILDER -->
<g id="node9" class="node">
<title>inst_OTTER_MCU_FETCH_SLOT1_BUILDER</title>
<polygon fill="#fff7e6" stroke="#b5651d" points="334.62,-1439 154.38,-1439 154.38,-1435 150.38,-1435 150.38,-1431 154.38,-1431 154.38,-1411 150.38,-1411 150.38,-1407 154.38,-1407 154.38,-1403 334.62,-1403 334.62,-1439"/>
<polyline fill="none" stroke="#b5651d" points="154.38,-1435 158.38,-1435 158.38,-1431 154.38,-1431"/>
<polyline fill="none" stroke="#b5651d" points="154.38,-1411 158.38,-1411 158.38,-1407 154.38,-1407"/>
<text xml:space="preserve" text-anchor="middle" x="244.5" y="-1416.55" font-family="Helvetica,sans-Serif" font-size="11.00">MCU_FETCH_SLOT1_BUILDER</text>
</g>
<!-- inst_OTTER_MCU_FETCH_SLOT1_BUILDER&#45;&gt;mod_FrontendPacketBuilder -->
<g id="edge9" class="edge">
<title>inst_OTTER_MCU_FETCH_SLOT1_BUILDER&#45;&gt;mod_FrontendPacketBuilder</title>
<path fill="none" stroke="#6c757d" d="M334.98,-1418.5C374.39,-1418.5 411.75,-1418.5 411.75,-1418.5 411.75,-1418.5 411.75,-1425.17 411.75,-1425.17"/>
<polygon fill="#6c757d" stroke="#6c757d" points="409.3,-1425.17 411.75,-1432.17 414.2,-1425.17 409.3,-1425.17"/>
</g>
<!-- inst_OTTER_MCU_FETCH_SLOT1_EXPANDER -->
<g id="node10" class="node">
<title>inst_OTTER_MCU_FETCH_SLOT1_EXPANDER</title>
<polygon fill="#fff7e6" stroke="#b5651d" points="340.62,-1317 148.38,-1317 148.38,-1313 144.38,-1313 144.38,-1309 148.38,-1309 148.38,-1289 144.38,-1289 144.38,-1285 148.38,-1285 148.38,-1281 340.62,-1281 340.62,-1317"/>
<polyline fill="none" stroke="#b5651d" points="148.38,-1313 152.38,-1313 152.38,-1309 148.38,-1309"/>
<polyline fill="none" stroke="#b5651d" points="148.38,-1289 152.38,-1289 152.38,-1285 148.38,-1285"/>
<text xml:space="preserve" text-anchor="middle" x="244.5" y="-1294.55" font-family="Helvetica,sans-Serif" font-size="11.00">MCU_FETCH_SLOT1_EXPANDER</text>
</g>
<!-- inst_OTTER_MCU_FETCH_SLOT1_EXPANDER&#45;&gt;mod_RVCExpander -->
<g id="edge10" class="edge">
<title>inst_OTTER_MCU_FETCH_SLOT1_EXPANDER&#45;&gt;mod_RVCExpander</title>
<path fill="none" stroke="#6c757d" d="M340.87,-1296.5C386.75,-1296.5 431.75,-1296.5 431.75,-1296.5 431.75,-1296.5 431.75,-1303.17 431.75,-1303.17"/>
<polygon fill="#6c757d" stroke="#6c757d" points="429.3,-1303.17 431.75,-1310.17 434.2,-1303.17 429.3,-1303.17"/>
</g>
<!-- inst_OTTER_MCU_OTTER_ALU -->
<g id="node11" class="node">
<title>inst_OTTER_MCU_OTTER_ALU</title>
<polygon fill="#fff7e6" stroke="#b5651d" points="300.88,-1256 188.12,-1256 188.12,-1252 184.12,-1252 184.12,-1248 188.12,-1248 188.12,-1228 184.12,-1228 184.12,-1224 188.12,-1224 188.12,-1220 300.88,-1220 300.88,-1256"/>
<polyline fill="none" stroke="#b5651d" points="188.12,-1252 192.12,-1252 192.12,-1248 188.12,-1248"/>
<polyline fill="none" stroke="#b5651d" points="188.12,-1228 192.12,-1228 192.12,-1224 188.12,-1224"/>
<text xml:space="preserve" text-anchor="middle" x="244.5" y="-1233.55" font-family="Helvetica,sans-Serif" font-size="11.00">MCU_OTTER_ALU</text>
</g>
<!-- mod_ALU -->
<g id="node32" class="node">
<title>mod_ALU</title>
<path fill="#eef7ff" stroke="#264653" stroke-width="1.4" d="M482.12,-1226C482.12,-1226 452.12,-1226 452.12,-1226 446.12,-1226 440.12,-1220 440.12,-1214 440.12,-1214 440.12,-1202 440.12,-1202 440.12,-1196 446.12,-1190 452.12,-1190 452.12,-1190 482.12,-1190 482.12,-1190 488.12,-1190 494.12,-1196 494.12,-1202 494.12,-1202 494.12,-1214 494.12,-1214 494.12,-1220 488.12,-1226 482.12,-1226"/>
<text xml:space="preserve" text-anchor="middle" x="467.12" y="-1203.55" font-family="Helvetica,sans-Serif" font-size="11.00">ALU</text>
</g>
<!-- inst_OTTER_MCU_OTTER_ALU&#45;&gt;mod_ALU -->
<g id="edge11" class="edge">
<title>inst_OTTER_MCU_OTTER_ALU&#45;&gt;mod_ALU</title>
<path fill="none" stroke="#6c757d" d="M301.16,-1241C367.01,-1241 466.75,-1241 466.75,-1241 466.75,-1241 466.75,-1234.94 466.75,-1234.94"/>
<polygon fill="#6c757d" stroke="#6c757d" points="469.2,-1234.94 466.75,-1227.94 464.3,-1234.94 469.2,-1234.94"/>
</g>
<!-- inst_OTTER_MCU_OTTER_ALU_PAIR -->
<g id="node12" class="node">
<title>inst_OTTER_MCU_OTTER_ALU_PAIR</title>
<polygon fill="#fff7e6" stroke="#b5651d" points="316.25,-1195 172.75,-1195 172.75,-1191 168.75,-1191 168.75,-1187 172.75,-1187 172.75,-1167 168.75,-1167 168.75,-1163 172.75,-1163 172.75,-1159 316.25,-1159 316.25,-1195"/>
<polyline fill="none" stroke="#b5651d" points="172.75,-1191 176.75,-1191 176.75,-1187 172.75,-1187"/>
<polyline fill="none" stroke="#b5651d" points="172.75,-1167 176.75,-1167 176.75,-1163 172.75,-1163"/>
<text xml:space="preserve" text-anchor="middle" x="244.5" y="-1172.55" font-family="Helvetica,sans-Serif" font-size="11.00">MCU_OTTER_ALU_PAIR</text>
</g>
<!-- inst_OTTER_MCU_OTTER_ALU_PAIR&#45;&gt;mod_ALU -->
<g id="edge12" class="edge">
<title>inst_OTTER_MCU_OTTER_ALU_PAIR&#45;&gt;mod_ALU</title>
<path fill="none" stroke="#6c757d" d="M308.75,-1195.45C308.75,-1201.87 308.75,-1207.5 308.75,-1207.5 308.75,-1207.5 431.02,-1207.5 431.02,-1207.5"/>
<polygon fill="#6c757d" stroke="#6c757d" points="431.02,-1209.95 438.02,-1207.5 431.02,-1205.05 431.02,-1209.95"/>
</g>
<!-- inst_OTTER_MCU_OTTER_BRANCH_GEN_EX1 -->
<g id="node13" class="node">
<title>inst_OTTER_MCU_OTTER_BRANCH_GEN_EX1</title>
<polygon fill="#fff7e6" stroke="#b5651d" points="342.5,-1134 146.5,-1134 146.5,-1130 142.5,-1130 142.5,-1126 146.5,-1126 146.5,-1106 142.5,-1106 142.5,-1102 146.5,-1102 146.5,-1098 342.5,-1098 342.5,-1134"/>
<polyline fill="none" stroke="#b5651d" points="146.5,-1130 150.5,-1130 150.5,-1126 146.5,-1126"/>
<polyline fill="none" stroke="#b5651d" points="146.5,-1106 150.5,-1106 150.5,-1102 146.5,-1102"/>
<text xml:space="preserve" text-anchor="middle" x="244.5" y="-1111.55" font-family="Helvetica,sans-Serif" font-size="11.00">MCU_OTTER_BRANCH_GEN_EX1</text>
</g>
<!-- mod_BranchGenerator -->
<g id="node37" class="node">
<title>mod_BranchGenerator</title>
<path fill="#eef7ff" stroke="#264653" stroke-width="1.4" d="M504.75,-1134C504.75,-1134 429.5,-1134 429.5,-1134 423.5,-1134 417.5,-1128 417.5,-1122 417.5,-1122 417.5,-1110 417.5,-1110 417.5,-1104 423.5,-1098 429.5,-1098 429.5,-1098 504.75,-1098 504.75,-1098 510.75,-1098 516.75,-1104 516.75,-1110 516.75,-1110 516.75,-1122 516.75,-1122 516.75,-1128 510.75,-1134 504.75,-1134"/>
<text xml:space="preserve" text-anchor="middle" x="467.12" y="-1111.55" font-family="Helvetica,sans-Serif" font-size="11.00">BranchGenerator</text>
</g>
<!-- inst_OTTER_MCU_OTTER_BRANCH_GEN_EX1&#45;&gt;mod_BranchGenerator -->
<g id="edge13" class="edge">
<title>inst_OTTER_MCU_OTTER_BRANCH_GEN_EX1&#45;&gt;mod_BranchGenerator</title>
<path fill="none" stroke="#6c757d" d="M342.79,-1116C342.79,-1116 408.42,-1116 408.42,-1116"/>
<polygon fill="#6c757d" stroke="#6c757d" points="408.42,-1118.45 415.42,-1116 408.42,-1113.55 408.42,-1118.45"/>
</g>
<!-- inst_OTTER_MCU_OTTER_BRANCH_PREDICTOR -->
<g id="node14" class="node">
<title>inst_OTTER_MCU_OTTER_BRANCH_PREDICTOR</title>
<polygon fill="#fff7e6" stroke="#b5651d" points="350,-1073 139,-1073 139,-1069 135,-1069 135,-1065 139,-1065 139,-1045 135,-1045 135,-1041 139,-1041 139,-1037 350,-1037 350,-1073"/>
<polyline fill="none" stroke="#b5651d" points="139,-1069 143,-1069 143,-1065 139,-1065"/>
<polyline fill="none" stroke="#b5651d" points="139,-1045 143,-1045 143,-1041 139,-1041"/>
<text xml:space="preserve" text-anchor="middle" x="244.5" y="-1050.55" font-family="Helvetica,sans-Serif" font-size="11.00">MCU_OTTER_BRANCH_PREDICTOR</text>
</g>
<!-- mod_BranchPredictor -->
<g id="node38" class="node">
<title>mod_BranchPredictor</title>
<path fill="#eef7ff" stroke="#264653" stroke-width="1.4" d="M502.12,-1073C502.12,-1073 432.12,-1073 432.12,-1073 426.12,-1073 420.12,-1067 420.12,-1061 420.12,-1061 420.12,-1049 420.12,-1049 420.12,-1043 426.12,-1037 432.12,-1037 432.12,-1037 502.12,-1037 502.12,-1037 508.12,-1037 514.12,-1043 514.12,-1049 514.12,-1049 514.12,-1061 514.12,-1061 514.12,-1067 508.12,-1073 502.12,-1073"/>
<text xml:space="preserve" text-anchor="middle" x="467.12" y="-1050.55" font-family="Helvetica,sans-Serif" font-size="11.00">BranchPredictor</text>
</g>
<!-- inst_OTTER_MCU_OTTER_BRANCH_PREDICTOR&#45;&gt;mod_BranchPredictor -->
<g id="edge14" class="edge">
<title>inst_OTTER_MCU_OTTER_BRANCH_PREDICTOR&#45;&gt;mod_BranchPredictor</title>
<path fill="none" stroke="#6c757d" d="M350.27,-1055C350.27,-1055 411.18,-1055 411.18,-1055"/>
<polygon fill="#6c757d" stroke="#6c757d" points="411.18,-1057.45 418.18,-1055 411.18,-1052.55 411.18,-1057.45"/>
</g>
<!-- inst_OTTER_MCU_OTTER_CACHE -->
<g id="node15" class="node">
<title>inst_OTTER_MCU_OTTER_CACHE</title>
<polygon fill="#fff7e6" stroke="#b5651d" points="309.88,-1012 179.12,-1012 179.12,-1008 175.12,-1008 175.12,-1004 179.12,-1004 179.12,-984 175.12,-984 175.12,-980 179.12,-980 179.12,-976 309.88,-976 309.88,-1012"/>
<polyline fill="none" stroke="#b5651d" points="179.12,-1008 183.12,-1008 183.12,-1004 179.12,-1004"/>
<polyline fill="none" stroke="#b5651d" points="179.12,-984 183.12,-984 183.12,-980 179.12,-980"/>
<text xml:space="preserve" text-anchor="middle" x="244.5" y="-989.55" font-family="Helvetica,sans-Serif" font-size="11.00">MCU_OTTER_CACHE</text>
</g>
<!-- mod_Cache -->
<g id="node41" class="node">
<title>mod_Cache</title>
<path fill="#eef7ff" stroke="#264653" stroke-width="1.4" d="M482.12,-1012C482.12,-1012 452.12,-1012 452.12,-1012 446.12,-1012 440.12,-1006 440.12,-1000 440.12,-1000 440.12,-988 440.12,-988 440.12,-982 446.12,-976 452.12,-976 452.12,-976 482.12,-976 482.12,-976 488.12,-976 494.12,-982 494.12,-988 494.12,-988 494.12,-1000 494.12,-1000 494.12,-1006 488.12,-1012 482.12,-1012"/>
<text xml:space="preserve" text-anchor="middle" x="467.12" y="-989.55" font-family="Helvetica,sans-Serif" font-size="11.00">Cache</text>
</g>
<!-- inst_OTTER_MCU_OTTER_CACHE&#45;&gt;mod_Cache -->
<g id="edge15" class="edge">
<title>inst_OTTER_MCU_OTTER_CACHE&#45;&gt;mod_Cache</title>
<path fill="none" stroke="#6c757d" d="M310.09,-994C310.09,-994 430.98,-994 430.98,-994"/>
<polygon fill="#6c757d" stroke="#6c757d" points="430.98,-996.45 437.98,-994 430.98,-991.55 430.98,-996.45"/>
</g>
<!-- inst_OTTER_MCU_OTTER_CACHE_FSM -->
<g id="node16" class="node">
<title>inst_OTTER_MCU_OTTER_CACHE_FSM</title>
<polygon fill="#fff7e6" stroke="#b5651d" points="324.5,-951 164.5,-951 164.5,-947 160.5,-947 160.5,-943 164.5,-943 164.5,-923 160.5,-923 160.5,-919 164.5,-919 164.5,-915 324.5,-915 324.5,-951"/>
<polyline fill="none" stroke="#b5651d" points="164.5,-947 168.5,-947 168.5,-943 164.5,-943"/>
<polyline fill="none" stroke="#b5651d" points="164.5,-923 168.5,-923 168.5,-919 164.5,-919"/>
<text xml:space="preserve" text-anchor="middle" x="244.5" y="-928.55" font-family="Helvetica,sans-Serif" font-size="11.00">MCU_OTTER_CACHE_FSM</text>
</g>
<!-- mod_CacheFSM -->
<g id="node42" class="node">
<title>mod_CacheFSM</title>
<path fill="#eef7ff" stroke="#264653" stroke-width="1.4" d="M490.5,-951C490.5,-951 443.75,-951 443.75,-951 437.75,-951 431.75,-945 431.75,-939 431.75,-939 431.75,-927 431.75,-927 431.75,-921 437.75,-915 443.75,-915 443.75,-915 490.5,-915 490.5,-915 496.5,-915 502.5,-921 502.5,-927 502.5,-927 502.5,-939 502.5,-939 502.5,-945 496.5,-951 490.5,-951"/>
<text xml:space="preserve" text-anchor="middle" x="467.12" y="-928.55" font-family="Helvetica,sans-Serif" font-size="11.00">CacheFSM</text>
</g>
<!-- inst_OTTER_MCU_OTTER_CACHE_FSM&#45;&gt;mod_CacheFSM -->
<g id="edge16" class="edge">
<title>inst_OTTER_MCU_OTTER_CACHE_FSM&#45;&gt;mod_CacheFSM</title>
<path fill="none" stroke="#6c757d" d="M324.87,-933C324.87,-933 422.83,-933 422.83,-933"/>
<polygon fill="#6c757d" stroke="#6c757d" points="422.83,-935.45 429.83,-933 422.83,-930.55 422.83,-935.45"/>
</g>
<!-- inst_OTTER_MCU_OTTER_CSR_FILE -->
<g id="node17" class="node">
<title>inst_OTTER_MCU_OTTER_CSR_FILE</title>
<polygon fill="#fff7e6" stroke="#b5651d" points="316.62,-890 172.38,-890 172.38,-886 168.38,-886 168.38,-882 172.38,-882 172.38,-862 168.38,-862 168.38,-858 172.38,-858 172.38,-854 316.62,-854 316.62,-890"/>
<polyline fill="none" stroke="#b5651d" points="172.38,-886 176.38,-886 176.38,-882 172.38,-882"/>
<polyline fill="none" stroke="#b5651d" points="172.38,-862 176.38,-862 176.38,-858 172.38,-858"/>
<text xml:space="preserve" text-anchor="middle" x="244.5" y="-867.55" font-family="Helvetica,sans-Serif" font-size="11.00">MCU_OTTER_CSR_FILE</text>
</g>
<!-- mod_CSR_FILE -->
<g id="node39" class="node">
<title>mod_CSR_FILE</title>
<path fill="#eef7ff" stroke="#264653" stroke-width="1.4" d="M489.75,-890C489.75,-890 444.5,-890 444.5,-890 438.5,-890 432.5,-884 432.5,-878 432.5,-878 432.5,-866 432.5,-866 432.5,-860 438.5,-854 444.5,-854 444.5,-854 489.75,-854 489.75,-854 495.75,-854 501.75,-860 501.75,-866 501.75,-866 501.75,-878 501.75,-878 501.75,-884 495.75,-890 489.75,-890"/>
<text xml:space="preserve" text-anchor="middle" x="467.12" y="-867.55" font-family="Helvetica,sans-Serif" font-size="11.00">CSR_FILE</text>
</g>
<!-- inst_OTTER_MCU_OTTER_CSR_FILE&#45;&gt;mod_CSR_FILE -->
<g id="edge17" class="edge">
<title>inst_OTTER_MCU_OTTER_CSR_FILE&#45;&gt;mod_CSR_FILE</title>
<path fill="none" stroke="#6c757d" d="M317.09,-872C317.09,-872 423.54,-872 423.54,-872"/>
<polygon fill="#6c757d" stroke="#6c757d" points="423.54,-874.45 430.54,-872 423.54,-869.55 423.54,-874.45"/>
</g>
<!-- inst_OTTER_MCU_OTTER_CU_DCDR -->
<g id="node18" class="node">
<title>inst_OTTER_MCU_OTTER_CU_DCDR</title>
<polygon fill="#fff7e6" stroke="#b5651d" points="317.75,-829 171.25,-829 171.25,-825 167.25,-825 167.25,-821 171.25,-821 171.25,-801 167.25,-801 167.25,-797 171.25,-797 171.25,-793 317.75,-793 317.75,-829"/>
<polyline fill="none" stroke="#b5651d" points="171.25,-825 175.25,-825 175.25,-821 171.25,-821"/>
<polyline fill="none" stroke="#b5651d" points="171.25,-801 175.25,-801 175.25,-797 171.25,-797"/>
<text xml:space="preserve" text-anchor="middle" x="244.5" y="-806.55" font-family="Helvetica,sans-Serif" font-size="11.00">MCU_OTTER_CU_DCDR</text>
</g>
<!-- mod_CU_DCDR -->
<g id="node40" class="node">
<title>mod_CU_DCDR</title>
<path fill="#eef7ff" stroke="#264653" stroke-width="1.4" d="M490.88,-799C490.88,-799 443.38,-799 443.38,-799 437.38,-799 431.38,-793 431.38,-787 431.38,-787 431.38,-775 431.38,-775 431.38,-769 437.38,-763 443.38,-763 443.38,-763 490.88,-763 490.88,-763 496.88,-763 502.88,-769 502.88,-775 502.88,-775 502.88,-787 502.88,-787 502.88,-793 496.88,-799 490.88,-799"/>
<text xml:space="preserve" text-anchor="middle" x="467.12" y="-776.55" font-family="Helvetica,sans-Serif" font-size="11.00">CU_DCDR</text>
</g>
<!-- inst_OTTER_MCU_OTTER_CU_DCDR&#45;&gt;mod_CU_DCDR -->
<g id="edge18" class="edge">
<title>inst_OTTER_MCU_OTTER_CU_DCDR&#45;&gt;mod_CU_DCDR</title>
<path fill="none" stroke="#6c757d" d="M318.2,-814C382.89,-814 466.75,-814 466.75,-814 466.75,-814 466.75,-807.94 466.75,-807.94"/>
<polygon fill="#6c757d" stroke="#6c757d" points="469.2,-807.94 466.75,-800.94 464.3,-807.94 469.2,-807.94"/>
</g>
<!-- inst_OTTER_MCU_OTTER_CU_DCDR_PAIR -->
<g id="node19" class="node">
<title>inst_OTTER_MCU_OTTER_CU_DCDR_PAIR</title>
<polygon fill="#fff7e6" stroke="#b5651d" points="333.12,-768 155.88,-768 155.88,-764 151.88,-764 151.88,-760 155.88,-760 155.88,-740 151.88,-740 151.88,-736 155.88,-736 155.88,-732 333.12,-732 333.12,-768"/>
<polyline fill="none" stroke="#b5651d" points="155.88,-764 159.88,-764 159.88,-760 155.88,-760"/>
<polyline fill="none" stroke="#b5651d" points="155.88,-740 159.88,-740 159.88,-736 155.88,-736"/>
<text xml:space="preserve" text-anchor="middle" x="244.5" y="-745.55" font-family="Helvetica,sans-Serif" font-size="11.00">MCU_OTTER_CU_DCDR_PAIR</text>
</g>
<!-- inst_OTTER_MCU_OTTER_CU_DCDR_PAIR&#45;&gt;mod_CU_DCDR -->
<g id="edge19" class="edge">
<title>inst_OTTER_MCU_OTTER_CU_DCDR_PAIR&#45;&gt;mod_CU_DCDR</title>
<path fill="none" stroke="#6c757d" d="M328.75,-768.45C328.75,-774.87 328.75,-780.5 328.75,-780.5 328.75,-780.5 422.26,-780.5 422.26,-780.5"/>
<polygon fill="#6c757d" stroke="#6c757d" points="422.26,-782.95 429.26,-780.5 422.26,-778.05 422.26,-782.95"/>
</g>
<!-- inst_OTTER_MCU_OTTER_DCACHE -->
<g id="node20" class="node">
<title>inst_OTTER_MCU_OTTER_DCACHE</title>
<polygon fill="#fff7e6" stroke="#b5651d" points="314,-707 175,-707 175,-703 171,-703 171,-699 175,-699 175,-679 171,-679 171,-675 175,-675 175,-671 314,-671 314,-707"/>
<polyline fill="none" stroke="#b5651d" points="175,-703 179,-703 179,-699 175,-699"/>
<polyline fill="none" stroke="#b5651d" points="175,-679 179,-679 179,-675 175,-675"/>
<text xml:space="preserve" text-anchor="middle" x="244.5" y="-684.55" font-family="Helvetica,sans-Serif" font-size="11.00">MCU_OTTER_DCACHE</text>
</g>
<!-- mod_datacache -->
<g id="node53" class="node">
<title>mod_datacache</title>
<path fill="#eef7ff" stroke="#264653" stroke-width="1.4" d="M487.88,-707C487.88,-707 446.38,-707 446.38,-707 440.38,-707 434.38,-701 434.38,-695 434.38,-695 434.38,-683 434.38,-683 434.38,-677 440.38,-671 446.38,-671 446.38,-671 487.88,-671 487.88,-671 493.88,-671 499.88,-677 499.88,-683 499.88,-683 499.88,-695 499.88,-695 499.88,-701 493.88,-707 487.88,-707"/>
<text xml:space="preserve" text-anchor="middle" x="467.12" y="-684.55" font-family="Helvetica,sans-Serif" font-size="11.00">datacache</text>
</g>
<!-- inst_OTTER_MCU_OTTER_DCACHE&#45;&gt;mod_datacache -->
<g id="edge20" class="edge">
<title>inst_OTTER_MCU_OTTER_DCACHE&#45;&gt;mod_datacache</title>
<path fill="none" stroke="#6c757d" d="M314.33,-689C314.33,-689 425.4,-689 425.4,-689"/>
<polygon fill="#6c757d" stroke="#6c757d" points="425.4,-691.45 432.4,-689 425.4,-686.55 425.4,-691.45"/>
</g>
<!-- inst_OTTER_MCU_OTTER_DCACHE_FSM -->
<g id="node21" class="node">
<title>inst_OTTER_MCU_OTTER_DCACHE_FSM</title>
<polygon fill="#fff7e6" stroke="#b5651d" points="328.62,-646 160.38,-646 160.38,-642 156.38,-642 156.38,-638 160.38,-638 160.38,-618 156.38,-618 156.38,-614 160.38,-614 160.38,-610 328.62,-610 328.62,-646"/>
<polyline fill="none" stroke="#b5651d" points="160.38,-642 164.38,-642 164.38,-638 160.38,-638"/>
<polyline fill="none" stroke="#b5651d" points="160.38,-618 164.38,-618 164.38,-614 160.38,-614"/>
<text xml:space="preserve" text-anchor="middle" x="244.5" y="-623.55" font-family="Helvetica,sans-Serif" font-size="11.00">MCU_OTTER_DCACHE_FSM</text>
</g>
<!-- mod_datacachefsm -->
<g id="node54" class="node">
<title>mod_datacachefsm</title>
<path fill="#eef7ff" stroke="#264653" stroke-width="1.4" d="M496.5,-646C496.5,-646 437.75,-646 437.75,-646 431.75,-646 425.75,-640 425.75,-634 425.75,-634 425.75,-622 425.75,-622 425.75,-616 431.75,-610 437.75,-610 437.75,-610 496.5,-610 496.5,-610 502.5,-610 508.5,-616 508.5,-622 508.5,-622 508.5,-634 508.5,-634 508.5,-640 502.5,-646 496.5,-646"/>
<text xml:space="preserve" text-anchor="middle" x="467.12" y="-623.55" font-family="Helvetica,sans-Serif" font-size="11.00">datacachefsm</text>
</g>
<!-- inst_OTTER_MCU_OTTER_DCACHE_FSM&#45;&gt;mod_datacachefsm -->
<g id="edge21" class="edge">
<title>inst_OTTER_MCU_OTTER_DCACHE_FSM&#45;&gt;mod_datacachefsm</title>
<path fill="none" stroke="#6c757d" d="M328.98,-628C328.98,-628 416.55,-628 416.55,-628"/>
<polygon fill="#6c757d" stroke="#6c757d" points="416.55,-630.45 423.55,-628 416.55,-625.55 416.55,-630.45"/>
</g>
<!-- inst_OTTER_MCU_OTTER_DUAL_ISSUE -->
<g id="node22" class="node">
<title>inst_OTTER_MCU_OTTER_DUAL_ISSUE</title>
<polygon fill="#fff7e6" stroke="#b5651d" points="324.88,-585 164.12,-585 164.12,-581 160.12,-581 160.12,-577 164.12,-577 164.12,-557 160.12,-557 160.12,-553 164.12,-553 164.12,-549 324.88,-549 324.88,-585"/>
<polyline fill="none" stroke="#b5651d" points="164.12,-581 168.12,-581 168.12,-577 164.12,-577"/>
<polyline fill="none" stroke="#b5651d" points="164.12,-557 168.12,-557 168.12,-553 164.12,-553"/>
<text xml:space="preserve" text-anchor="middle" x="244.5" y="-562.55" font-family="Helvetica,sans-Serif" font-size="11.00">MCU_OTTER_DUAL_ISSUE</text>
</g>
<!-- mod_DualIssueInOrder -->
<g id="node43" class="node">
<title>mod_DualIssueInOrder</title>
<path fill="#eef7ff" stroke="#264653" stroke-width="1.4" d="M505.5,-585C505.5,-585 428.75,-585 428.75,-585 422.75,-585 416.75,-579 416.75,-573 416.75,-573 416.75,-561 416.75,-561 416.75,-555 422.75,-549 428.75,-549 428.75,-549 505.5,-549 505.5,-549 511.5,-549 517.5,-555 517.5,-561 517.5,-561 517.5,-573 517.5,-573 517.5,-579 511.5,-585 505.5,-585"/>
<text xml:space="preserve" text-anchor="middle" x="467.12" y="-562.55" font-family="Helvetica,sans-Serif" font-size="11.00">DualIssueInOrder</text>
</g>
<!-- inst_OTTER_MCU_OTTER_DUAL_ISSUE&#45;&gt;mod_DualIssueInOrder -->
<g id="edge22" class="edge">
<title>inst_OTTER_MCU_OTTER_DUAL_ISSUE&#45;&gt;mod_DualIssueInOrder</title>
<path fill="none" stroke="#6c757d" d="M325.19,-567C325.19,-567 407.61,-567 407.61,-567"/>
<polygon fill="#6c757d" stroke="#6c757d" points="407.61,-569.45 414.61,-567 407.61,-564.55 407.61,-569.45"/>
</g>
<!-- inst_OTTER_MCU_OTTER_HAZARD -->
<g id="node23" class="node">
<title>inst_OTTER_MCU_OTTER_HAZARD</title>
<polygon fill="#fff7e6" stroke="#b5651d" points="313.25,-524 175.75,-524 175.75,-520 171.75,-520 171.75,-516 175.75,-516 175.75,-496 171.75,-496 171.75,-492 175.75,-492 175.75,-488 313.25,-488 313.25,-524"/>
<polyline fill="none" stroke="#b5651d" points="175.75,-520 179.75,-520 179.75,-516 175.75,-516"/>
<polyline fill="none" stroke="#b5651d" points="175.75,-496 179.75,-496 179.75,-492 175.75,-492"/>
<text xml:space="preserve" text-anchor="middle" x="244.5" y="-501.55" font-family="Helvetica,sans-Serif" font-size="11.00">MCU_OTTER_HAZARD</text>
</g>
<!-- mod_Hazard -->
<g id="node45" class="node">
<title>mod_Hazard</title>
<path fill="#eef7ff" stroke="#264653" stroke-width="1.4" d="M482.12,-524C482.12,-524 452.12,-524 452.12,-524 446.12,-524 440.12,-518 440.12,-512 440.12,-512 440.12,-500 440.12,-500 440.12,-494 446.12,-488 452.12,-488 452.12,-488 482.12,-488 482.12,-488 488.12,-488 494.12,-494 494.12,-500 494.12,-500 494.12,-512 494.12,-512 494.12,-518 488.12,-524 482.12,-524"/>
<text xml:space="preserve" text-anchor="middle" x="467.12" y="-501.55" font-family="Helvetica,sans-Serif" font-size="11.00">Hazard</text>
</g>
<!-- inst_OTTER_MCU_OTTER_HAZARD&#45;&gt;mod_Hazard -->
<g id="edge23" class="edge">
<title>inst_OTTER_MCU_OTTER_HAZARD&#45;&gt;mod_Hazard</title>
<path fill="none" stroke="#6c757d" d="M313.72,-506C313.72,-506 431.06,-506 431.06,-506"/>
<polygon fill="#6c757d" stroke="#6c757d" points="431.06,-508.45 438.06,-506 431.06,-503.55 431.06,-508.45"/>
</g>
<!-- inst_OTTER_MCU_OTTER_IMEM -->
<g id="node24" class="node">
<title>inst_OTTER_MCU_OTTER_IMEM</title>
<polygon fill="#fff7e6" stroke="#b5651d" points="304.25,-463 184.75,-463 184.75,-459 180.75,-459 180.75,-455 184.75,-455 184.75,-435 180.75,-435 180.75,-431 184.75,-431 184.75,-427 304.25,-427 304.25,-463"/>
<polyline fill="none" stroke="#b5651d" points="184.75,-459 188.75,-459 188.75,-455 184.75,-455"/>
<polyline fill="none" stroke="#b5651d" points="184.75,-435 188.75,-435 188.75,-431 184.75,-431"/>
<text xml:space="preserve" text-anchor="middle" x="244.5" y="-440.55" font-family="Helvetica,sans-Serif" font-size="11.00">MCU_OTTER_IMEM</text>
</g>
<!-- mod_imem -->
<g id="node55" class="node">
<title>mod_imem</title>
<path fill="#eef7ff" stroke="#264653" stroke-width="1.4" d="M482.12,-433C482.12,-433 452.12,-433 452.12,-433 446.12,-433 440.12,-427 440.12,-421 440.12,-421 440.12,-409 440.12,-409 440.12,-403 446.12,-397 452.12,-397 452.12,-397 482.12,-397 482.12,-397 488.12,-397 494.12,-403 494.12,-409 494.12,-409 494.12,-421 494.12,-421 494.12,-427 488.12,-433 482.12,-433"/>
<text xml:space="preserve" text-anchor="middle" x="467.12" y="-410.55" font-family="Helvetica,sans-Serif" font-size="11.00">imem</text>
</g>
<!-- inst_OTTER_MCU_OTTER_IMEM&#45;&gt;mod_imem -->
<g id="edge24" class="edge">
<title>inst_OTTER_MCU_OTTER_IMEM&#45;&gt;mod_imem</title>
<path fill="none" stroke="#6c757d" d="M304.64,-448C370.46,-448 466.75,-448 466.75,-448 466.75,-448 466.75,-441.94 466.75,-441.94"/>
<polygon fill="#6c757d" stroke="#6c757d" points="469.2,-441.94 466.75,-434.94 464.3,-441.94 469.2,-441.94"/>
</g>
<!-- inst_OTTER_MCU_OTTER_IMEM_PREFETCH -->
<g id="node25" class="node">
<title>inst_OTTER_MCU_OTTER_IMEM_PREFETCH</title>
<polygon fill="#fff7e6" stroke="#b5651d" points="337.62,-402 151.38,-402 151.38,-398 147.38,-398 147.38,-394 151.38,-394 151.38,-374 147.38,-374 147.38,-370 151.38,-370 151.38,-366 337.62,-366 337.62,-402"/>
<polyline fill="none" stroke="#b5651d" points="151.38,-398 155.38,-398 155.38,-394 151.38,-394"/>
<polyline fill="none" stroke="#b5651d" points="151.38,-374 155.38,-374 155.38,-370 151.38,-370"/>
<text xml:space="preserve" text-anchor="middle" x="244.5" y="-379.55" font-family="Helvetica,sans-Serif" font-size="11.00">MCU_OTTER_IMEM_PREFETCH</text>
</g>
<!-- inst_OTTER_MCU_OTTER_IMEM_PREFETCH&#45;&gt;mod_imem -->
<g id="edge25" class="edge">
<title>inst_OTTER_MCU_OTTER_IMEM_PREFETCH&#45;&gt;mod_imem</title>
<path fill="none" stroke="#6c757d" d="M318.75,-402.45C318.75,-408.87 318.75,-414.5 318.75,-414.5 318.75,-414.5 431.05,-414.5 431.05,-414.5"/>
<polygon fill="#6c757d" stroke="#6c757d" points="431.05,-416.95 438.05,-414.5 431.05,-412.05 431.05,-416.95"/>
</g>
<!-- inst_OTTER_MCU_OTTER_IMGEN -->
<g id="node26" class="node">
<title>inst_OTTER_MCU_OTTER_IMGEN</title>
<polygon fill="#fff7e6" stroke="#b5651d" points="308,-341 181,-341 181,-337 177,-337 177,-333 181,-333 181,-313 177,-313 177,-309 181,-309 181,-305 308,-305 308,-341"/>
<polyline fill="none" stroke="#b5651d" points="181,-337 185,-337 185,-333 181,-333"/>
<polyline fill="none" stroke="#b5651d" points="181,-313 185,-313 185,-309 181,-309"/>
<text xml:space="preserve" text-anchor="middle" x="244.5" y="-318.55" font-family="Helvetica,sans-Serif" font-size="11.00">MCU_OTTER_IMGEN</text>
</g>
<!-- mod_ImmediateGenerator -->
<g id="node46" class="node">
<title>mod_ImmediateGenerator</title>
<path fill="#eef7ff" stroke="#264653" stroke-width="1.4" d="M512.62,-311C512.62,-311 421.62,-311 421.62,-311 415.62,-311 409.62,-305 409.62,-299 409.62,-299 409.62,-287 409.62,-287 409.62,-281 415.62,-275 421.62,-275 421.62,-275 512.62,-275 512.62,-275 518.62,-275 524.62,-281 524.62,-287 524.62,-287 524.62,-299 524.62,-299 524.62,-305 518.62,-311 512.62,-311"/>
<text xml:space="preserve" text-anchor="middle" x="467.12" y="-288.55" font-family="Helvetica,sans-Serif" font-size="11.00">ImmediateGenerator</text>
</g>
<!-- inst_OTTER_MCU_OTTER_IMGEN&#45;&gt;mod_ImmediateGenerator -->
<g id="edge26" class="edge">
<title>inst_OTTER_MCU_OTTER_IMGEN&#45;&gt;mod_ImmediateGenerator</title>
<path fill="none" stroke="#6c757d" d="M308.38,-326C356.69,-326 414.75,-326 414.75,-326 414.75,-326 414.75,-319.94 414.75,-319.94"/>
<polygon fill="#6c757d" stroke="#6c757d" points="417.2,-319.94 414.75,-312.94 412.3,-319.94 417.2,-319.94"/>
</g>
<!-- inst_OTTER_MCU_OTTER_IMGEN_PAIR -->
<g id="node27" class="node">
<title>inst_OTTER_MCU_OTTER_IMGEN_PAIR</title>
<polygon fill="#fff7e6" stroke="#b5651d" points="323.38,-280 165.62,-280 165.62,-276 161.62,-276 161.62,-272 165.62,-272 165.62,-252 161.62,-252 161.62,-248 165.62,-248 165.62,-244 323.38,-244 323.38,-280"/>
<polyline fill="none" stroke="#b5651d" points="165.62,-276 169.62,-276 169.62,-272 165.62,-272"/>
<polyline fill="none" stroke="#b5651d" points="165.62,-252 169.62,-252 169.62,-248 165.62,-248"/>
<text xml:space="preserve" text-anchor="middle" x="244.5" y="-257.55" font-family="Helvetica,sans-Serif" font-size="11.00">MCU_OTTER_IMGEN_PAIR</text>
</g>
<!-- inst_OTTER_MCU_OTTER_IMGEN_PAIR&#45;&gt;mod_ImmediateGenerator -->
<g id="edge27" class="edge">
<title>inst_OTTER_MCU_OTTER_IMGEN_PAIR&#45;&gt;mod_ImmediateGenerator</title>
<path fill="none" stroke="#6c757d" d="M315.75,-280.45C315.75,-286.87 315.75,-292.5 315.75,-292.5 315.75,-292.5 400.52,-292.5 400.52,-292.5"/>
<polygon fill="#6c757d" stroke="#6c757d" points="400.52,-294.95 407.52,-292.5 400.52,-290.05 400.52,-294.95"/>
</g>
<!-- inst_OTTER_MCU_OTTER_L2CACHE -->
<g id="node28" class="node">
<title>inst_OTTER_MCU_OTTER_L2CACHE</title>
<polygon fill="#fff7e6" stroke="#b5651d" points="315.88,-219 173.12,-219 173.12,-215 169.12,-215 169.12,-211 173.12,-211 173.12,-191 169.12,-191 169.12,-187 173.12,-187 173.12,-183 315.88,-183 315.88,-219"/>
<polyline fill="none" stroke="#b5651d" points="173.12,-215 177.12,-215 177.12,-211 173.12,-211"/>
<polyline fill="none" stroke="#b5651d" points="173.12,-191 177.12,-191 177.12,-187 173.12,-187"/>
<text xml:space="preserve" text-anchor="middle" x="244.5" y="-196.55" font-family="Helvetica,sans-Serif" font-size="11.00">MCU_OTTER_L2CACHE</text>
</g>
<!-- mod_l2cache -->
<g id="node56" class="node">
<title>mod_l2cache</title>
<path fill="#eef7ff" stroke="#264653" stroke-width="1.4" d="M482.12,-219C482.12,-219 452.12,-219 452.12,-219 446.12,-219 440.12,-213 440.12,-207 440.12,-207 440.12,-195 440.12,-195 440.12,-189 446.12,-183 452.12,-183 452.12,-183 482.12,-183 482.12,-183 488.12,-183 494.12,-189 494.12,-195 494.12,-195 494.12,-207 494.12,-207 494.12,-213 488.12,-219 482.12,-219"/>
<text xml:space="preserve" text-anchor="middle" x="467.12" y="-196.55" font-family="Helvetica,sans-Serif" font-size="11.00">l2cache</text>
</g>
<!-- inst_OTTER_MCU_OTTER_L2CACHE&#45;&gt;mod_l2cache -->
<g id="edge28" class="edge">
<title>inst_OTTER_MCU_OTTER_L2CACHE&#45;&gt;mod_l2cache</title>
<path fill="none" stroke="#6c757d" d="M316.17,-201C316.17,-201 431.13,-201 431.13,-201"/>
<polygon fill="#6c757d" stroke="#6c757d" points="431.13,-203.45 438.13,-201 431.13,-198.55 431.13,-203.45"/>
</g>
<!-- inst_OTTER_MCU_OTTER_MEMORY -->
<g id="node29" class="node">
<title>inst_OTTER_MCU_OTTER_MEMORY</title>
<polygon fill="#fff7e6" stroke="#b5651d" points="314.38,-158 174.62,-158 174.62,-154 170.62,-154 170.62,-150 174.62,-150 174.62,-130 170.62,-130 170.62,-126 174.62,-126 174.62,-122 314.38,-122 314.38,-158"/>
<polyline fill="none" stroke="#b5651d" points="174.62,-154 178.62,-154 178.62,-150 174.62,-150"/>
<polyline fill="none" stroke="#b5651d" points="174.62,-130 178.62,-130 178.62,-126 174.62,-126"/>
<text xml:space="preserve" text-anchor="middle" x="244.5" y="-135.55" font-family="Helvetica,sans-Serif" font-size="11.00">MCU_OTTER_MEMORY</text>
</g>
<!-- mod_Memory -->
<g id="node47" class="node">
<title>mod_Memory</title>
<path fill="#eef7ff" stroke="#264653" stroke-width="1.4" d="M482.62,-158C482.62,-158 451.62,-158 451.62,-158 445.62,-158 439.62,-152 439.62,-146 439.62,-146 439.62,-134 439.62,-134 439.62,-128 445.62,-122 451.62,-122 451.62,-122 482.62,-122 482.62,-122 488.62,-122 494.62,-128 494.62,-134 494.62,-134 494.62,-146 494.62,-146 494.62,-152 488.62,-158 482.62,-158"/>
<text xml:space="preserve" text-anchor="middle" x="467.12" y="-135.55" font-family="Helvetica,sans-Serif" font-size="11.00">Memory</text>
</g>
<!-- inst_OTTER_MCU_OTTER_MEMORY&#45;&gt;mod_Memory -->
<g id="edge29" class="edge">
<title>inst_OTTER_MCU_OTTER_MEMORY&#45;&gt;mod_Memory</title>
<path fill="none" stroke="#6c757d" d="M314.63,-140C314.63,-140 430.45,-140 430.45,-140"/>
<polygon fill="#6c757d" stroke="#6c757d" points="430.45,-142.45 437.45,-140 430.45,-137.55 430.45,-142.45"/>
</g>
<!-- inst_OTTER_MCU_OTTER_REG_FILE -->
<g id="node30" class="node">
<title>inst_OTTER_MCU_OTTER_REG_FILE</title>
<polygon fill="#fff7e6" stroke="#b5651d" points="316.62,-97 172.38,-97 172.38,-93 168.38,-93 168.38,-89 172.38,-89 172.38,-69 168.38,-69 168.38,-65 172.38,-65 172.38,-61 316.62,-61 316.62,-97"/>
<polyline fill="none" stroke="#b5651d" points="172.38,-93 176.38,-93 176.38,-89 172.38,-89"/>
<polyline fill="none" stroke="#b5651d" points="172.38,-69 176.38,-69 176.38,-65 172.38,-65"/>
<text xml:space="preserve" text-anchor="middle" x="244.5" y="-74.55" font-family="Helvetica,sans-Serif" font-size="11.00">MCU_OTTER_REG_FILE</text>
</g>
<!-- mod_REG_FILE -->
<g id="node50" class="node">
<title>mod_REG_FILE</title>
<path fill="#eef7ff" stroke="#264653" stroke-width="1.4" d="M489.75,-97C489.75,-97 444.5,-97 444.5,-97 438.5,-97 432.5,-91 432.5,-85 432.5,-85 432.5,-73 432.5,-73 432.5,-67 438.5,-61 444.5,-61 444.5,-61 489.75,-61 489.75,-61 495.75,-61 501.75,-67 501.75,-73 501.75,-73 501.75,-85 501.75,-85 501.75,-91 495.75,-97 489.75,-97"/>
<text xml:space="preserve" text-anchor="middle" x="467.12" y="-74.55" font-family="Helvetica,sans-Serif" font-size="11.00">REG_FILE</text>
</g>
<!-- inst_OTTER_MCU_OTTER_REG_FILE&#45;&gt;mod_REG_FILE -->
<g id="edge30" class="edge">
<title>inst_OTTER_MCU_OTTER_REG_FILE&#45;&gt;mod_REG_FILE</title>
<path fill="none" stroke="#6c757d" d="M317.09,-79C317.09,-79 423.54,-79 423.54,-79"/>
<polygon fill="#6c757d" stroke="#6c757d" points="423.54,-81.45 430.54,-79 423.54,-76.55 423.54,-81.45"/>
</g>
<!-- inst_OTTER_MCU_OTTER_STORE_BUFFER -->
<g id="node31" class="node">
<title>inst_OTTER_MCU_OTTER_STORE_BUFFER</title>
<polygon fill="#fff7e6" stroke="#b5651d" points="334.62,-36 154.38,-36 154.38,-32 150.38,-32 150.38,-28 154.38,-28 154.38,-8 150.38,-8 150.38,-4 154.38,-4 154.38,0 334.62,0 334.62,-36"/>
<polyline fill="none" stroke="#b5651d" points="154.38,-32 158.38,-32 158.38,-28 154.38,-28"/>
<polyline fill="none" stroke="#b5651d" points="154.38,-8 158.38,-8 158.38,-4 154.38,-4"/>
<text xml:space="preserve" text-anchor="middle" x="244.5" y="-13.55" font-family="Helvetica,sans-Serif" font-size="11.00">MCU_OTTER_STORE_BUFFER</text>
</g>
<!-- mod_StoreBuffer -->
<g id="node52" class="node">
<title>mod_StoreBuffer</title>
<path fill="#eef7ff" stroke="#264653" stroke-width="1.4" d="M490.88,-36C490.88,-36 443.38,-36 443.38,-36 437.38,-36 431.38,-30 431.38,-24 431.38,-24 431.38,-12 431.38,-12 431.38,-6 437.38,0 443.38,0 443.38,0 490.88,0 490.88,0 496.88,0 502.88,-6 502.88,-12 502.88,-12 502.88,-24 502.88,-24 502.88,-30 496.88,-36 490.88,-36"/>
<text xml:space="preserve" text-anchor="middle" x="467.12" y="-13.55" font-family="Helvetica,sans-Serif" font-size="11.00">StoreBuffer</text>
</g>
<!-- inst_OTTER_MCU_OTTER_STORE_BUFFER&#45;&gt;mod_StoreBuffer -->
<g id="edge31" class="edge">
<title>inst_OTTER_MCU_OTTER_STORE_BUFFER&#45;&gt;mod_StoreBuffer</title>
<path fill="none" stroke="#6c757d" d="M335.05,-18C335.05,-18 422.32,-18 422.32,-18"/>
<polygon fill="#6c757d" stroke="#6c757d" points="422.32,-20.45 429.32,-18 422.32,-15.55 422.32,-20.45"/>
</g>
<!-- mod_BranchGenerator&#45;&gt;inst_BranchGenerator_branch_addr_gen -->
<g id="edge32" class="edge">
<title>mod_BranchGenerator&#45;&gt;inst_BranchGenerator_branch_addr_gen</title>
<path fill="none" stroke="#6c757d" d="M501.75,-1134.45C501.75,-1140.87 501.75,-1146.5 501.75,-1146.5 501.75,-1146.5 575.5,-1146.5 575.5,-1146.5"/>
<polygon fill="#6c757d" stroke="#6c757d" points="575.5,-1148.95 582.5,-1146.5 575.5,-1144.05 575.5,-1148.95"/>
</g>
<!-- mod_BranchGenerator&#45;&gt;inst_BranchGenerator_branch_comp -->
<g id="edge33" class="edge">
<title>mod_BranchGenerator&#45;&gt;inst_BranchGenerator_branch_comp</title>
<path fill="none" stroke="#6c757d" d="M517.42,-1115.5C566.79,-1115.5 634.75,-1115.5 634.75,-1115.5 634.75,-1115.5 634.75,-1111.96 634.75,-1111.96"/>
<polygon fill="#6c757d" stroke="#6c757d" points="637.2,-1111.96 634.75,-1104.96 632.3,-1111.96 637.2,-1111.96"/>
</g>
<!-- mod_Memory&#45;&gt;inst_Memory_MMIO_BLOCK -->
<g id="edge34" class="edge">
<title>mod_Memory&#45;&gt;inst_Memory_MMIO_BLOCK</title>
<path fill="none" stroke="#6c757d" d="M495.16,-140C495.16,-140 581.24,-140 581.24,-140"/>
<polygon fill="#6c757d" stroke="#6c757d" points="581.24,-142.45 588.24,-140 581.24,-137.55 581.24,-142.45"/>
</g>
<!-- mod_OTTER_MCU -->
<g id="node48" class="node">
<title>mod_OTTER_MCU</title>
<path fill="#d8f3dc" stroke="#264653" stroke-width="1.4" d="M73,-859C73,-859 12,-859 12,-859 6,-859 0,-853 0,-847 0,-847 0,-835 0,-835 0,-829 6,-823 12,-823 12,-823 73,-823 73,-823 79,-823 85,-829 85,-835 85,-835 85,-847 85,-847 85,-853 79,-859 73,-859"/>
<text xml:space="preserve" text-anchor="middle" x="42.5" y="-836.55" font-family="Helvetica,sans-Serif" font-size="11.00">OTTER_MCU</text>
</g>
<!-- mod_OTTER_MCU&#45;&gt;inst_OTTER_MCU_ATOMIC_CTRL -->
<g id="edge35" class="edge">
<title>mod_OTTER_MCU&#45;&gt;inst_OTTER_MCU_ATOMIC_CTRL</title>
<path fill="none" stroke="#6c757d" d="M5.75,-859.37C5.75,-980.95 5.75,-1665 5.75,-1665 5.75,-1665 173.57,-1665 173.57,-1665"/>
<polygon fill="#6c757d" stroke="#6c757d" points="173.57,-1667.45 180.57,-1665 173.57,-1662.55 173.57,-1667.45"/>
</g>
<!-- mod_OTTER_MCU&#45;&gt;inst_OTTER_MCU_ATOMIC_DECODE_SLOT0 -->
<g id="edge36" class="edge">
<title>mod_OTTER_MCU&#45;&gt;inst_OTTER_MCU_ATOMIC_DECODE_SLOT0</title>
<path fill="none" stroke="#6c757d" d="M11.75,-859.48C11.75,-976.01 11.75,-1604 11.75,-1604 11.75,-1604 144,-1604 144,-1604"/>
<polygon fill="#6c757d" stroke="#6c757d" points="144,-1606.45 151,-1604 144,-1601.55 144,-1606.45"/>
</g>
<!-- mod_OTTER_MCU&#45;&gt;inst_OTTER_MCU_ATOMIC_DECODE_SLOT1 -->
<g id="edge37" class="edge">
<title>mod_OTTER_MCU&#45;&gt;inst_OTTER_MCU_ATOMIC_DECODE_SLOT1</title>
<path fill="none" stroke="#6c757d" d="M17.75,-859.42C17.75,-970.18 17.75,-1543 17.75,-1543 17.75,-1543 144.09,-1543 144.09,-1543"/>
<polygon fill="#6c757d" stroke="#6c757d" points="144.09,-1545.45 151.09,-1543 144.09,-1540.55 144.09,-1545.45"/>
</g>
<!-- mod_OTTER_MCU&#45;&gt;inst_OTTER_MCU_FETCH_SLOT0_BUILDER -->
<g id="edge38" class="edge">
<title>mod_OTTER_MCU&#45;&gt;inst_OTTER_MCU_FETCH_SLOT0_BUILDER</title>
<path fill="none" stroke="#6c757d" d="M24.75,-859.49C24.75,-964.59 24.75,-1482 24.75,-1482 24.75,-1482 145.65,-1482 145.65,-1482"/>
<polygon fill="#6c757d" stroke="#6c757d" points="145.65,-1484.45 152.65,-1482 145.65,-1479.55 145.65,-1484.45"/>
</g>
<!-- mod_OTTER_MCU&#45;&gt;inst_OTTER_MCU_FETCH_SLOT0_EXPANDER -->
<g id="edge39" class="edge">
<title>mod_OTTER_MCU&#45;&gt;inst_OTTER_MCU_FETCH_SLOT0_EXPANDER</title>
<path fill="none" stroke="#6c757d" d="M36.75,-859.47C36.75,-951.93 36.75,-1360 36.75,-1360 36.75,-1360 139.41,-1360 139.41,-1360"/>
<polygon fill="#6c757d" stroke="#6c757d" points="139.41,-1362.45 146.41,-1360 139.41,-1357.55 139.41,-1362.45"/>
</g>
<!-- mod_OTTER_MCU&#45;&gt;inst_OTTER_MCU_FETCH_SLOT1_BUILDER -->
<g id="edge40" class="edge">
<title>mod_OTTER_MCU&#45;&gt;inst_OTTER_MCU_FETCH_SLOT1_BUILDER</title>
<path fill="none" stroke="#6c757d" d="M30.75,-859.64C30.75,-958.92 30.75,-1421 30.75,-1421 30.75,-1421 145.65,-1421 145.65,-1421"/>
<polygon fill="#6c757d" stroke="#6c757d" points="145.65,-1423.45 152.65,-1421 145.65,-1418.55 145.65,-1423.45"/>
</g>
<!-- mod_OTTER_MCU&#45;&gt;inst_OTTER_MCU_FETCH_SLOT1_EXPANDER -->
<g id="edge41" class="edge">
<title>mod_OTTER_MCU&#45;&gt;inst_OTTER_MCU_FETCH_SLOT1_EXPANDER</title>
<path fill="none" stroke="#6c757d" d="M42.75,-859.52C42.75,-945.21 42.75,-1299 42.75,-1299 42.75,-1299 139.54,-1299 139.54,-1299"/>
<polygon fill="#6c757d" stroke="#6c757d" points="139.54,-1301.45 146.54,-1299 139.54,-1296.55 139.54,-1301.45"/>
</g>
<!-- mod_OTTER_MCU&#45;&gt;inst_OTTER_MCU_OTTER_ALU -->
<g id="edge42" class="edge">
<title>mod_OTTER_MCU&#45;&gt;inst_OTTER_MCU_OTTER_ALU</title>
<path fill="none" stroke="#6c757d" d="M48.75,-859.62C48.75,-938.1 48.75,-1238 48.75,-1238 48.75,-1238 179.37,-1238 179.37,-1238"/>
<polygon fill="#6c757d" stroke="#6c757d" points="179.37,-1240.45 186.37,-1238 179.37,-1235.55 179.37,-1240.45"/>
</g>
<!-- mod_OTTER_MCU&#45;&gt;inst_OTTER_MCU_OTTER_ALU_PAIR -->
<g id="edge43" class="edge">
<title>mod_OTTER_MCU&#45;&gt;inst_OTTER_MCU_OTTER_ALU_PAIR</title>
<path fill="none" stroke="#6c757d" d="M54.75,-859.54C54.75,-929.98 54.75,-1177 54.75,-1177 54.75,-1177 163.98,-1177 163.98,-1177"/>
<polygon fill="#6c757d" stroke="#6c757d" points="163.98,-1179.45 170.98,-1177 163.98,-1174.55 163.98,-1179.45"/>
</g>
<!-- mod_OTTER_MCU&#45;&gt;inst_OTTER_MCU_OTTER_BRANCH_GEN_EX1 -->
<g id="edge44" class="edge">
<title>mod_OTTER_MCU&#45;&gt;inst_OTTER_MCU_OTTER_BRANCH_GEN_EX1</title>
<path fill="none" stroke="#6c757d" d="M60.75,-859.47C60.75,-921.13 60.75,-1116 60.75,-1116 60.75,-1116 137.66,-1116 137.66,-1116"/>
<polygon fill="#6c757d" stroke="#6c757d" points="137.66,-1118.45 144.66,-1116 137.66,-1113.55 137.66,-1118.45"/>
</g>
<!-- mod_OTTER_MCU&#45;&gt;inst_OTTER_MCU_OTTER_BRANCH_PREDICTOR -->
<g id="edge45" class="edge">
<title>mod_OTTER_MCU&#45;&gt;inst_OTTER_MCU_OTTER_BRANCH_PREDICTOR</title>
<path fill="none" stroke="#6c757d" d="M85.57,-845.67C113.51,-845.67 144.75,-845.67 144.75,-845.67 144.75,-845.67 144.75,-1028.28 144.75,-1028.28"/>
<polygon fill="#6c757d" stroke="#6c757d" points="142.3,-1028.28 144.75,-1035.28 147.2,-1028.28 142.3,-1028.28"/>
</g>
<!-- mod_OTTER_MCU&#45;&gt;inst_OTTER_MCU_OTTER_CACHE -->
<g id="edge46" class="edge">
<title>mod_OTTER_MCU&#45;&gt;inst_OTTER_MCU_OTTER_CACHE</title>
<path fill="none" stroke="#6c757d" d="M66.75,-859.46C66.75,-900.15 66.75,-994 66.75,-994 66.75,-994 170.3,-994 170.3,-994"/>
<polygon fill="#6c757d" stroke="#6c757d" points="170.3,-996.45 177.3,-994 170.3,-991.55 170.3,-996.45"/>
</g>
<!-- mod_OTTER_MCU&#45;&gt;inst_OTTER_MCU_OTTER_CACHE_FSM -->
<g id="edge47" class="edge">
<title>mod_OTTER_MCU&#45;&gt;inst_OTTER_MCU_OTTER_CACHE_FSM</title>
<path fill="none" stroke="#6c757d" d="M72.75,-859.62C72.75,-886.5 72.75,-933 72.75,-933 72.75,-933 155.64,-933 155.64,-933"/>
<polygon fill="#6c757d" stroke="#6c757d" points="155.64,-935.45 162.64,-933 155.64,-930.55 155.64,-935.45"/>
</g>
<!-- mod_OTTER_MCU&#45;&gt;inst_OTTER_MCU_OTTER_CSR_FILE -->
<g id="edge48" class="edge">
<title>mod_OTTER_MCU&#45;&gt;inst_OTTER_MCU_OTTER_CSR_FILE</title>
<path fill="none" stroke="#6c757d" d="M78.75,-859.32C78.75,-867.14 78.75,-874.5 78.75,-874.5 78.75,-874.5 163.77,-874.5 163.77,-874.5"/>
<polygon fill="#6c757d" stroke="#6c757d" points="163.77,-876.95 170.77,-874.5 163.77,-872.05 163.77,-876.95"/>
</g>
<!-- mod_OTTER_MCU&#45;&gt;inst_OTTER_MCU_OTTER_CU_DCDR -->
<g id="edge49" class="edge">
<title>mod_OTTER_MCU&#45;&gt;inst_OTTER_MCU_OTTER_CU_DCDR</title>
<path fill="none" stroke="#6c757d" d="M78.75,-822.57C78.75,-815.01 78.75,-808 78.75,-808 78.75,-808 162.32,-808 162.32,-808"/>
<polygon fill="#6c757d" stroke="#6c757d" points="162.32,-810.45 169.32,-808 162.32,-805.55 162.32,-810.45"/>
</g>
<!-- mod_OTTER_MCU&#45;&gt;inst_OTTER_MCU_OTTER_CU_DCDR_PAIR -->
<g id="edge50" class="edge">
<title>mod_OTTER_MCU&#45;&gt;inst_OTTER_MCU_OTTER_CU_DCDR_PAIR</title>
<path fill="none" stroke="#6c757d" d="M85.49,-837.33C118.96,-837.33 159.75,-837.33 159.75,-837.33 159.75,-837.33 159.75,-776.61 159.75,-776.61"/>
<polygon fill="#6c757d" stroke="#6c757d" points="162.2,-776.61 159.75,-769.61 157.3,-776.61 162.2,-776.61"/>
</g>
<!-- mod_OTTER_MCU&#45;&gt;inst_OTTER_MCU_OTTER_DCACHE -->
<g id="edge51" class="edge">
<title>mod_OTTER_MCU&#45;&gt;inst_OTTER_MCU_OTTER_DCACHE</title>
<path fill="none" stroke="#6c757d" d="M72.75,-822.36C72.75,-781.77 72.75,-689 72.75,-689 72.75,-689 166.13,-689 166.13,-689"/>
<polygon fill="#6c757d" stroke="#6c757d" points="166.13,-691.45 173.13,-689 166.13,-686.55 166.13,-691.45"/>
</g>
<!-- mod_OTTER_MCU&#45;&gt;inst_OTTER_MCU_OTTER_DCACHE_FSM -->
<g id="edge52" class="edge">
<title>mod_OTTER_MCU&#45;&gt;inst_OTTER_MCU_OTTER_DCACHE_FSM</title>
<path fill="none" stroke="#6c757d" d="M66.75,-822.47C66.75,-770.65 66.75,-628 66.75,-628 66.75,-628 151.54,-628 151.54,-628"/>
<polygon fill="#6c757d" stroke="#6c757d" points="151.54,-630.45 158.54,-628 151.54,-625.55 151.54,-630.45"/>
</g>
<!-- mod_OTTER_MCU&#45;&gt;inst_OTTER_MCU_OTTER_DUAL_ISSUE -->
<g id="edge53" class="edge">
<title>mod_OTTER_MCU&#45;&gt;inst_OTTER_MCU_OTTER_DUAL_ISSUE</title>
<path fill="none" stroke="#6c757d" d="M60.75,-822.6C60.75,-761.16 60.75,-567 60.75,-567 60.75,-567 155.12,-567 155.12,-567"/>
<polygon fill="#6c757d" stroke="#6c757d" points="155.12,-569.45 162.12,-567 155.12,-564.55 155.12,-569.45"/>
</g>
<!-- mod_OTTER_MCU&#45;&gt;inst_OTTER_MCU_OTTER_HAZARD -->
<g id="edge54" class="edge">
<title>mod_OTTER_MCU&#45;&gt;inst_OTTER_MCU_OTTER_HAZARD</title>
<path fill="none" stroke="#6c757d" d="M54.75,-822.51C54.75,-752.28 54.75,-506 54.75,-506 54.75,-506 166.95,-506 166.95,-506"/>
<polygon fill="#6c757d" stroke="#6c757d" points="166.95,-508.45 173.95,-506 166.95,-503.55 166.95,-508.45"/>
</g>
<!-- mod_OTTER_MCU&#45;&gt;inst_OTTER_MCU_OTTER_IMEM -->
<g id="edge55" class="edge">
<title>mod_OTTER_MCU&#45;&gt;inst_OTTER_MCU_OTTER_IMEM</title>
<path fill="none" stroke="#6c757d" d="M48.75,-822.43C48.75,-744.14 48.75,-445 48.75,-445 48.75,-445 175.92,-445 175.92,-445"/>
<polygon fill="#6c757d" stroke="#6c757d" points="175.92,-447.45 182.92,-445 175.92,-442.55 175.92,-447.45"/>
</g>
<!-- mod_OTTER_MCU&#45;&gt;inst_OTTER_MCU_OTTER_IMEM_PREFETCH -->
<g id="edge56" class="edge">
<title>mod_OTTER_MCU&#45;&gt;inst_OTTER_MCU_OTTER_IMEM_PREFETCH</title>
<path fill="none" stroke="#6c757d" d="M42.75,-822.52C42.75,-737.02 42.75,-384 42.75,-384 42.75,-384 142.49,-384 142.49,-384"/>
<polygon fill="#6c757d" stroke="#6c757d" points="142.49,-386.45 149.49,-384 142.49,-381.55 142.49,-386.45"/>
</g>
<!-- mod_OTTER_MCU&#45;&gt;inst_OTTER_MCU_OTTER_IMGEN -->
<g id="edge57" class="edge">
<title>mod_OTTER_MCU&#45;&gt;inst_OTTER_MCU_OTTER_IMGEN</title>
<path fill="none" stroke="#6c757d" d="M36.75,-822.56C36.75,-730.29 36.75,-323 36.75,-323 36.75,-323 172.24,-323 172.24,-323"/>
<polygon fill="#6c757d" stroke="#6c757d" points="172.24,-325.45 179.24,-323 172.24,-320.55 172.24,-325.45"/>
</g>
<!-- mod_OTTER_MCU&#45;&gt;inst_OTTER_MCU_OTTER_IMGEN_PAIR -->
<g id="edge58" class="edge">
<title>mod_OTTER_MCU&#45;&gt;inst_OTTER_MCU_OTTER_IMGEN_PAIR</title>
<path fill="none" stroke="#6c757d" d="M30.75,-822.39C30.75,-723.29 30.75,-262 30.75,-262 30.75,-262 156.7,-262 156.7,-262"/>
<polygon fill="#6c757d" stroke="#6c757d" points="156.7,-264.45 163.7,-262 156.7,-259.55 156.7,-264.45"/>
</g>
<!-- mod_OTTER_MCU&#45;&gt;inst_OTTER_MCU_OTTER_L2CACHE -->
<g id="edge59" class="edge">
<title>mod_OTTER_MCU&#45;&gt;inst_OTTER_MCU_OTTER_L2CACHE</title>
<path fill="none" stroke="#6c757d" d="M24.75,-822.54C24.75,-717.6 24.75,-201 24.75,-201 24.75,-201 164.34,-201 164.34,-201"/>
<polygon fill="#6c757d" stroke="#6c757d" points="164.34,-203.45 171.34,-201 164.34,-198.55 164.34,-203.45"/>
</g>
<!-- mod_OTTER_MCU&#45;&gt;inst_OTTER_MCU_OTTER_MEMORY -->
<g id="edge60" class="edge">
<title>mod_OTTER_MCU&#45;&gt;inst_OTTER_MCU_OTTER_MEMORY</title>
<path fill="none" stroke="#6c757d" d="M17.75,-822.61C17.75,-712.01 17.75,-140 17.75,-140 17.75,-140 165.79,-140 165.79,-140"/>
<polygon fill="#6c757d" stroke="#6c757d" points="165.79,-142.45 172.79,-140 165.79,-137.55 165.79,-142.45"/>
</g>
<!-- mod_OTTER_MCU&#45;&gt;inst_OTTER_MCU_OTTER_REG_FILE -->
<g id="edge61" class="edge">
<title>mod_OTTER_MCU&#45;&gt;inst_OTTER_MCU_OTTER_REG_FILE</title>
<path fill="none" stroke="#6c757d" d="M11.75,-822.54C11.75,-706.17 11.75,-79 11.75,-79 11.75,-79 163.62,-79 163.62,-79"/>
<polygon fill="#6c757d" stroke="#6c757d" points="163.62,-81.45 170.62,-79 163.62,-76.55 163.62,-81.45"/>
</g>
<!-- mod_OTTER_MCU&#45;&gt;inst_OTTER_MCU_OTTER_STORE_BUFFER -->
<g id="edge62" class="edge">
<title>mod_OTTER_MCU&#45;&gt;inst_OTTER_MCU_OTTER_STORE_BUFFER</title>
<path fill="none" stroke="#6c757d" d="M5.75,-822.66C5.75,-701.22 5.75,-18 5.75,-18 5.75,-18 145.38,-18 145.38,-18"/>
<polygon fill="#6c757d" stroke="#6c757d" points="145.38,-20.45 152.38,-18 145.38,-15.55 145.38,-20.45"/>
</g>
</g>
</svg>
