<?xml version="1.0" encoding="UTF-8" standalone="no"?>
<!DOCTYPE svg PUBLIC "-//W3C//DTD SVG 1.1//EN"
 "http://www.w3.org/Graphics/SVG/1.1/DTD/svg11.dtd">
<!-- Generated by graphviz version 15.0.0 (20260523.1842)
 -->
<!-- Title: OTTER_MCU_BLOCK Pages: 1 -->
<svg width="1187pt" height="1525pt"
 viewBox="0.00 0.00 1187.00 1525.00" xmlns="http://www.w3.org/2000/svg" xmlns:xlink="http://www.w3.org/1999/xlink">
<g id="graph0" class="graph" transform="scale(1 1) rotate(0) translate(14.4 1510.4)">
<title>OTTER_MCU_BLOCK</title>
<polygon fill="white" stroke="none" points="-14.4,14.4 -14.4,-1510.4 1172.4,-1510.4 1172.4,14.4 -14.4,14.4"/>
<g id="clust1" class="cluster">
<title>cluster_Front_End</title>
<path fill="#e3f2fd" stroke="#90a4ae" d="M517.5,-1139C517.5,-1139 945,-1139 945,-1139 951,-1139 957,-1145 957,-1151 957,-1151 957,-1476 957,-1476 957,-1482 951,-1488 945,-1488 945,-1488 517.5,-1488 517.5,-1488 511.5,-1488 505.5,-1482 505.5,-1476 505.5,-1476 505.5,-1151 505.5,-1151 505.5,-1145 511.5,-1139 517.5,-1139"/>
<text xml:space="preserve" text-anchor="middle" x="731.25" y="-1470.7" font-family="Times,serif" font-size="14.00">Front End</text>
</g>
<g id="clust2" class="cluster">
<title>cluster_Decode___Control</title>
<path fill="#e8f5e9" stroke="#90a4ae" d="M273.12,-679C273.12,-679 931.12,-679 931.12,-679 937.12,-679 943.12,-685 943.12,-691 943.12,-691 943.12,-948 943.12,-948 943.12,-954 937.12,-960 931.12,-960 931.12,-960 273.12,-960 273.12,-960 267.12,-960 261.12,-954 261.12,-948 261.12,-948 261.12,-691 261.12,-691 261.12,-685 267.12,-679 273.12,-679"/>
<text xml:space="preserve" text-anchor="middle" x="602.12" y="-942.7" font-family="Times,serif" font-size="14.00">Decode / Control</text>
</g>
<g id="clust3" class="cluster">
<title>cluster_Execute</title>
<path fill="#fff3e0" stroke="#90a4ae" d="M266,-341C266,-341 668,-341 668,-341 674,-341 680,-347 680,-353 680,-353 680,-610 680,-610 680,-616 674,-622 668,-622 668,-622 266,-622 266,-622 260,-622 254,-616 254,-610 254,-610 254,-353 254,-353 254,-347 260,-341 266,-341"/>
<text xml:space="preserve" text-anchor="middle" x="467" y="-604.7" font-family="Times,serif" font-size="14.00">Execute</text>
</g>
<g id="clust4" class="cluster">
<title>cluster_Memory_System</title>
<path fill="#f3e5f5" stroke="#90a4ae" d="M534,-8C534,-8 1138,-8 1138,-8 1144,-8 1150,-14 1150,-20 1150,-20 1150,-209 1150,-209 1150,-215 1144,-221 1138,-221 1138,-221 534,-221 534,-221 528,-221 522,-215 522,-209 522,-209 522,-20 522,-20 522,-14 528,-8 534,-8"/>
<text xml:space="preserve" text-anchor="middle" x="836" y="-203.7" font-family="Times,serif" font-size="14.00">Memory System</text>
</g>
<!-- OTTER_MCU -->
<g id="node1" class="node">
<title>OTTER_MCU</title>
<path fill="#d8f3dc" stroke="#264653" stroke-width="1.8" d="M178,-827.5C178,-827.5 12,-827.5 12,-827.5 6,-827.5 0,-821.5 0,-815.5 0,-815.5 0,-798.5 0,-798.5 0,-792.5 6,-786.5 12,-786.5 12,-786.5 178,-786.5 178,-786.5 184,-786.5 190,-792.5 190,-798.5 190,-798.5 190,-815.5 190,-815.5 190,-821.5 184,-827.5 178,-827.5"/>
<text xml:space="preserve" text-anchor="middle" x="95" y="-808.3" font-family="Helvetica,sans-Serif" font-size="16.00">OTTER_MCU</text>
<text xml:space="preserve" text-anchor="middle" x="95" y="-791.8" font-family="Helvetica,sans-Serif" font-size="16.00">7&#45;stage RV32IMAC core</text>
</g>
<!-- FETCH_SLOT0_EXPANDER -->
<g id="node2" class="node">
<title>FETCH_SLOT0_EXPANDER</title>
<path fill="#ffffff" stroke="#264653" d="M687,-1319C687,-1319 535.25,-1319 535.25,-1319 529.25,-1319 523.25,-1313 523.25,-1307 523.25,-1307 523.25,-1295 523.25,-1295 523.25,-1289 529.25,-1283 535.25,-1283 535.25,-1283 687,-1283 687,-1283 693,-1283 699,-1289 699,-1295 699,-1295 699,-1307 699,-1307 699,-1313 693,-1319 687,-1319"/>
<text xml:space="preserve" text-anchor="middle" x="611.12" y="-1302.35" font-family="Helvetica,sans-Serif" font-size="12.00">FETCH_SLOT0_EXPANDER</text>
<text xml:space="preserve" text-anchor="middle" x="611.12" y="-1289.6" font-family="Helvetica,sans-Serif" font-size="12.00">(RVCExpander)</text>
</g>
<!-- OTTER_MCU&#45;&gt;FETCH_SLOT0_EXPANDER -->
<g id="edge1" class="edge">
<title>OTTER_MCU&#45;&gt;FETCH_SLOT0_EXPANDER</title>
<path fill="none" stroke="#5c677d" stroke-width="1.2" d="M81,-828.23C81,-922.78 81,-1301 81,-1301 81,-1301 513.17,-1301 513.17,-1301"/>
<polygon fill="#5c677d" stroke="#5c677d" stroke-width="1.2" points="513.17,-1303.8 521.17,-1301 513.17,-1298.2 513.17,-1303.8"/>
</g>
<!-- FETCH_SLOT1_EXPANDER -->
<g id="node3" class="node">
<title>FETCH_SLOT1_EXPANDER</title>
<path fill="#ffffff" stroke="#264653" d="M687,-1183C687,-1183 535.25,-1183 535.25,-1183 529.25,-1183 523.25,-1177 523.25,-1171 523.25,-1171 523.25,-1159 523.25,-1159 523.25,-1153 529.25,-1147 535.25,-1147 535.25,-1147 687,-1147 687,-1147 693,-1147 699,-1153 699,-1159 699,-1159 699,-1171 699,-1171 699,-1177 693,-1183 687,-1183"/>
<text xml:space="preserve" text-anchor="middle" x="611.12" y="-1166.35" font-family="Helvetica,sans-Serif" font-size="12.00">FETCH_SLOT1_EXPANDER</text>
<text xml:space="preserve" text-anchor="middle" x="611.12" y="-1153.6" font-family="Helvetica,sans-Serif" font-size="12.00">(RVCExpander)</text>
</g>
<!-- OTTER_MCU&#45;&gt;FETCH_SLOT1_EXPANDER -->
<g id="edge2" class="edge">
<title>OTTER_MCU&#45;&gt;FETCH_SLOT1_EXPANDER</title>
<path fill="none" stroke="#5c677d" stroke-width="1.2" d="M136,-828.32C136,-905.39 136,-1165 136,-1165 136,-1165 513.05,-1165 513.05,-1165"/>
<polygon fill="#5c677d" stroke="#5c677d" stroke-width="1.2" points="513.05,-1167.8 521.05,-1165 513.05,-1162.2 513.05,-1167.8"/>
</g>
<!-- OTTER_BRANCH_PREDICTOR -->
<g id="node4" class="node">
<title>OTTER_BRANCH_PREDICTOR</title>
<path fill="#ffffff" stroke="#264653" d="M696.75,-1251C696.75,-1251 525.5,-1251 525.5,-1251 519.5,-1251 513.5,-1245 513.5,-1239 513.5,-1239 513.5,-1227 513.5,-1227 513.5,-1221 519.5,-1215 525.5,-1215 525.5,-1215 696.75,-1215 696.75,-1215 702.75,-1215 708.75,-1221 708.75,-1227 708.75,-1227 708.75,-1239 708.75,-1239 708.75,-1245 702.75,-1251 696.75,-1251"/>
<text xml:space="preserve" text-anchor="middle" x="611.12" y="-1234.35" font-family="Helvetica,sans-Serif" font-size="12.00">OTTER_BRANCH_PREDICTOR</text>
<text xml:space="preserve" text-anchor="middle" x="611.12" y="-1221.6" font-family="Helvetica,sans-Serif" font-size="12.00">(BranchPredictor)</text>
</g>
<!-- OTTER_MCU&#45;&gt;OTTER_BRANCH_PREDICTOR -->
<g id="edge3" class="edge">
<title>OTTER_MCU&#45;&gt;OTTER_BRANCH_PREDICTOR</title>
<path fill="none" stroke="#5c677d" stroke-width="1.2" d="M109,-828.13C109,-914.86 109,-1239 109,-1239 109,-1239 503.3,-1239 503.3,-1239"/>
<polygon fill="#5c677d" stroke="#5c677d" stroke-width="1.2" points="503.3,-1241.8 511.3,-1239 503.3,-1236.2 503.3,-1241.8"/>
</g>
<!-- FETCH_SLOT0_BUILDER -->
<g id="node5" class="node">
<title>FETCH_SLOT0_BUILDER</title>
<path fill="#ffffff" stroke="#264653" d="M934,-1319C934,-1319 795.75,-1319 795.75,-1319 789.75,-1319 783.75,-1313 783.75,-1307 783.75,-1307 783.75,-1295 783.75,-1295 783.75,-1289 789.75,-1283 795.75,-1283 795.75,-1283 934,-1283 934,-1283 940,-1283 946,-1289 946,-1295 946,-1295 946,-1307 946,-1307 946,-1313 940,-1319 934,-1319"/>
<text xml:space="preserve" text-anchor="middle" x="864.88" y="-1302.35" font-family="Helvetica,sans-Serif" font-size="12.00">FETCH_SLOT0_BUILDER</text>
<text xml:space="preserve" text-anchor="middle" x="864.88" y="-1289.6" font-family="Helvetica,sans-Serif" font-size="12.00">(FrontendPacketBuilder)</text>
</g>
<!-- OTTER_MCU&#45;&gt;FETCH_SLOT0_BUILDER -->
<g id="edge4" class="edge">
<title>OTTER_MCU&#45;&gt;FETCH_SLOT0_BUILDER</title>
<path fill="none" stroke="#5c677d" stroke-width="1.2" d="M190.78,-808.78C376.18,-808.78 766,-808.78 766,-808.78 766,-808.78 766,-1292 766,-1292 766,-1292 773.86,-1292 773.86,-1292"/>
<polygon fill="#5c677d" stroke="#5c677d" stroke-width="1.2" points="773.86,-1294.8 781.86,-1292 773.86,-1289.2 773.86,-1294.8"/>
</g>
<!-- FETCH_SLOT1_BUILDER -->
<g id="node6" class="node">
<title>FETCH_SLOT1_BUILDER</title>
<path fill="#ffffff" stroke="#264653" d="M934,-1251C934,-1251 795.75,-1251 795.75,-1251 789.75,-1251 783.75,-1245 783.75,-1239 783.75,-1239 783.75,-1227 783.75,-1227 783.75,-1221 789.75,-1215 795.75,-1215 795.75,-1215 934,-1215 934,-1215 940,-1215 946,-1221 946,-1227 946,-1227 946,-1239 946,-1239 946,-1245 940,-1251 934,-1251"/>
<text xml:space="preserve" text-anchor="middle" x="864.88" y="-1234.35" font-family="Helvetica,sans-Serif" font-size="12.00">FETCH_SLOT1_BUILDER</text>
<text xml:space="preserve" text-anchor="middle" x="864.88" y="-1221.6" font-family="Helvetica,sans-Serif" font-size="12.00">(FrontendPacketBuilder)</text>
</g>
<!-- OTTER_MCU&#45;&gt;FETCH_SLOT1_BUILDER -->
<g id="edge5" class="edge">
<title>OTTER_MCU&#45;&gt;FETCH_SLOT1_BUILDER</title>
<path fill="none" stroke="#5c677d" stroke-width="1.2" d="M190.68,-807C381.45,-807 791,-807 791,-807 791,-807 791,-1204.88 791,-1204.88"/>
<polygon fill="#5c677d" stroke="#5c677d" stroke-width="1.2" points="788.2,-1204.88 791,-1212.88 793.8,-1204.88 788.2,-1204.88"/>
</g>
<!-- OTTER_IMEM -->
<g id="node7" class="node">
<title>OTTER_IMEM</title>
<path fill="#ffffff" stroke="#264653" d="M900.25,-1455C900.25,-1455 829.5,-1455 829.5,-1455 823.5,-1455 817.5,-1449 817.5,-1443 817.5,-1443 817.5,-1431 817.5,-1431 817.5,-1425 823.5,-1419 829.5,-1419 829.5,-1419 900.25,-1419 900.25,-1419 906.25,-1419 912.25,-1425 912.25,-1431 912.25,-1431 912.25,-1443 912.25,-1443 912.25,-1449 906.25,-1455 900.25,-1455"/>
<text xml:space="preserve" text-anchor="middle" x="864.88" y="-1438.35" font-family="Helvetica,sans-Serif" font-size="12.00">OTTER_IMEM</text>
<text xml:space="preserve" text-anchor="middle" x="864.88" y="-1425.6" font-family="Helvetica,sans-Serif" font-size="12.00">(imem)</text>
</g>
<!-- OTTER_MCU&#45;&gt;OTTER_IMEM -->
<g id="edge6" class="edge">
<title>OTTER_MCU&#45;&gt;OTTER_IMEM</title>
<path fill="none" stroke="#5c677d" stroke-width="1.2" d="M190.57,-812.33C369.69,-812.33 738,-812.33 738,-812.33 738,-812.33 738,-1431 738,-1431 738,-1431 807.45,-1431 807.45,-1431"/>
<polygon fill="#5c677d" stroke="#5c677d" stroke-width="1.2" points="807.45,-1433.8 815.45,-1431 807.45,-1428.2 807.45,-1433.8"/>
</g>
<!-- OTTER_IMEM_PREFETCH -->
<g id="node8" class="node">
<title>OTTER_IMEM_PREFETCH</title>
<path fill="#ffffff" stroke="#264653" d="M937,-1387C937,-1387 792.75,-1387 792.75,-1387 786.75,-1387 780.75,-1381 780.75,-1375 780.75,-1375 780.75,-1363 780.75,-1363 780.75,-1357 786.75,-1351 792.75,-1351 792.75,-1351 937,-1351 937,-1351 943,-1351 949,-1357 949,-1363 949,-1363 949,-1375 949,-1375 949,-1381 943,-1387 937,-1387"/>
<text xml:space="preserve" text-anchor="middle" x="864.88" y="-1370.35" font-family="Helvetica,sans-Serif" font-size="12.00">OTTER_IMEM_PREFETCH</text>
<text xml:space="preserve" text-anchor="middle" x="864.88" y="-1357.6" font-family="Helvetica,sans-Serif" font-size="12.00">(imem)</text>
</g>
<!-- OTTER_MCU&#45;&gt;OTTER_IMEM_PREFETCH -->
<g id="edge7" class="edge">
<title>OTTER_MCU&#45;&gt;OTTER_IMEM_PREFETCH</title>
<path fill="none" stroke="#5c677d" stroke-width="1.2" d="M190.89,-810.56C373.24,-810.56 752,-810.56 752,-810.56 752,-810.56 752,-1360 752,-1360 752,-1360 770.67,-1360 770.67,-1360"/>
<polygon fill="#5c677d" stroke="#5c677d" stroke-width="1.2" points="770.67,-1362.8 778.67,-1360 770.67,-1357.2 770.67,-1362.8"/>
</g>
<!-- OTTER_CACHE -->
<g id="node9" class="node">
<title>OTTER_CACHE</title>
<path fill="#ffffff" stroke="#264653" d="M652.88,-1387C652.88,-1387 569.38,-1387 569.38,-1387 563.38,-1387 557.38,-1381 557.38,-1375 557.38,-1375 557.38,-1363 557.38,-1363 557.38,-1357 563.38,-1351 569.38,-1351 569.38,-1351 652.88,-1351 652.88,-1351 658.88,-1351 664.88,-1357 664.88,-1363 664.88,-1363 664.88,-1375 664.88,-1375 664.88,-1381 658.88,-1387 652.88,-1387"/>
<text xml:space="preserve" text-anchor="middle" x="611.12" y="-1370.35" font-family="Helvetica,sans-Serif" font-size="12.00">OTTER_CACHE</text>
<text xml:space="preserve" text-anchor="middle" x="611.12" y="-1357.6" font-family="Helvetica,sans-Serif" font-size="12.00">(Cache)</text>
</g>
<!-- OTTER_MCU&#45;&gt;OTTER_CACHE -->
<g id="edge8" class="edge">
<title>OTTER_MCU&#45;&gt;OTTER_CACHE</title>
<path fill="none" stroke="#5c677d" stroke-width="1.2" d="M54,-828.34C54,-931 54,-1369 54,-1369 54,-1369 547.13,-1369 547.13,-1369"/>
<polygon fill="#5c677d" stroke="#5c677d" stroke-width="1.2" points="547.13,-1371.8 555.13,-1369 547.13,-1366.2 547.13,-1371.8"/>
</g>
<!-- OTTER_CACHE_FSM -->
<g id="node10" class="node">
<title>OTTER_CACHE_FSM</title>
<path fill="#ffffff" stroke="#264653" d="M669,-1455C669,-1455 553.25,-1455 553.25,-1455 547.25,-1455 541.25,-1449 541.25,-1443 541.25,-1443 541.25,-1431 541.25,-1431 541.25,-1425 547.25,-1419 553.25,-1419 553.25,-1419 669,-1419 669,-1419 675,-1419 681,-1425 681,-1431 681,-1431 681,-1443 681,-1443 681,-1449 675,-1455 669,-1455"/>
<text xml:space="preserve" text-anchor="middle" x="611.12" y="-1438.35" font-family="Helvetica,sans-Serif" font-size="12.00">OTTER_CACHE_FSM</text>
<text xml:space="preserve" text-anchor="middle" x="611.12" y="-1425.6" font-family="Helvetica,sans-Serif" font-size="12.00">(CacheFSM)</text>
</g>
<!-- OTTER_MCU&#45;&gt;OTTER_CACHE_FSM -->
<g id="edge9" class="edge">
<title>OTTER_MCU&#45;&gt;OTTER_CACHE_FSM</title>
<path fill="none" stroke="#5c677d" stroke-width="1.2" d="M27,-828.32C27,-938.37 27,-1437 27,-1437 27,-1437 531.14,-1437 531.14,-1437"/>
<polygon fill="#5c677d" stroke="#5c677d" stroke-width="1.2" points="531.14,-1439.8 539.14,-1437 531.14,-1434.2 531.14,-1439.8"/>
</g>
<!-- OTTER_CSR_FILE -->
<g id="node11" class="node">
<title>OTTER_CSR_FILE</title>
<path fill="#ffffff" stroke="#264653" d="M401,-791C401,-791 302.5,-791 302.5,-791 296.5,-791 290.5,-785 290.5,-779 290.5,-779 290.5,-767 290.5,-767 290.5,-761 296.5,-755 302.5,-755 302.5,-755 401,-755 401,-755 407,-755 413,-761 413,-767 413,-767 413,-779 413,-779 413,-785 407,-791 401,-791"/>
<text xml:space="preserve" text-anchor="middle" x="351.75" y="-774.35" font-family="Helvetica,sans-Serif" font-size="12.00">OTTER_CSR_FILE</text>
<text xml:space="preserve" text-anchor="middle" x="351.75" y="-761.6" font-family="Helvetica,sans-Serif" font-size="12.00">(CSR_FILE)</text>
</g>
<!-- OTTER_MCU&#45;&gt;OTTER_CSR_FILE -->
<g id="edge10" class="edge">
<title>OTTER_MCU&#45;&gt;OTTER_CSR_FILE</title>
<path fill="none" stroke="#5c677d" stroke-width="1.2" d="M190.7,-794.56C263.77,-794.56 352,-794.56 352,-794.56 352,-794.56 352,-794.22 352,-794.22"/>
<polygon fill="#5c677d" stroke="#5c677d" stroke-width="1.2" points="354.8,-801 352,-793 349.2,-801 354.8,-801"/>
</g>
<!-- OTTER_REG_FILE -->
<g id="node12" class="node">
<title>OTTER_REG_FILE</title>
<path fill="#ffffff" stroke="#264653" d="M401,-723C401,-723 302.5,-723 302.5,-723 296.5,-723 290.5,-717 290.5,-711 290.5,-711 290.5,-699 290.5,-699 290.5,-693 296.5,-687 302.5,-687 302.5,-687 401,-687 401,-687 407,-687 413,-693 413,-699 413,-699 413,-711 413,-711 413,-717 407,-723 401,-723"/>
<text xml:space="preserve" text-anchor="middle" x="351.75" y="-706.35" font-family="Helvetica,sans-Serif" font-size="12.00">OTTER_REG_FILE</text>
<text xml:space="preserve" text-anchor="middle" x="351.75" y="-693.6" font-family="Helvetica,sans-Serif" font-size="12.00">(REG_FILE)</text>
</g>
<!-- OTTER_MCU&#45;&gt;OTTER_REG_FILE -->
<g id="edge11" class="edge">
<title>OTTER_MCU&#45;&gt;OTTER_REG_FILE</title>
<path fill="none" stroke="#5c677d" stroke-width="1.2" d="M142,-785.87C142,-755.99 142,-705 142,-705 142,-705 280.42,-705 280.42,-705"/>
<polygon fill="#5c677d" stroke="#5c677d" stroke-width="1.2" points="280.42,-707.8 288.42,-705 280.42,-702.2 280.42,-707.8"/>
</g>
<!-- OTTER_CU_DCDR -->
<g id="node13" class="node">
<title>OTTER_CU_DCDR</title>
<path fill="#ffffff" stroke="#264653" d="M661.5,-791C661.5,-791 560.75,-791 560.75,-791 554.75,-791 548.75,-785 548.75,-779 548.75,-779 548.75,-767 548.75,-767 548.75,-761 554.75,-755 560.75,-755 560.75,-755 661.5,-755 661.5,-755 667.5,-755 673.5,-761 673.5,-767 673.5,-767 673.5,-779 673.5,-779 673.5,-785 667.5,-791 661.5,-791"/>
<text xml:space="preserve" text-anchor="middle" x="611.12" y="-774.35" font-family="Helvetica,sans-Serif" font-size="12.00">OTTER_CU_DCDR</text>
<text xml:space="preserve" text-anchor="middle" x="611.12" y="-761.6" font-family="Helvetica,sans-Serif" font-size="12.00">(CU_DCDR)</text>
</g>
<!-- OTTER_MCU&#45;&gt;OTTER_CU_DCDR -->
<g id="edge12" class="edge">
<title>OTTER_MCU&#45;&gt;OTTER_CU_DCDR</title>
<path fill="none" stroke="#5c677d" stroke-width="1.2" d="M190.63,-801.67C332.46,-801.67 582,-801.67 582,-801.67 582,-801.67 582,-800.63 582,-800.63"/>
<polygon fill="#5c677d" stroke="#5c677d" stroke-width="1.2" points="584.8,-801.13 582,-793.13 579.2,-801.13 584.8,-801.13"/>
</g>
<!-- OTTER_CU_DCDR_PAIR -->
<g id="node14" class="node">
<title>OTTER_CU_DCDR_PAIR</title>
<path fill="#ffffff" stroke="#264653" d="M678.38,-927C678.38,-927 543.88,-927 543.88,-927 537.88,-927 531.88,-921 531.88,-915 531.88,-915 531.88,-903 531.88,-903 531.88,-897 537.88,-891 543.88,-891 543.88,-891 678.38,-891 678.38,-891 684.38,-891 690.38,-897 690.38,-903 690.38,-903 690.38,-915 690.38,-915 690.38,-921 684.38,-927 678.38,-927"/>
<text xml:space="preserve" text-anchor="middle" x="611.12" y="-910.35" font-family="Helvetica,sans-Serif" font-size="12.00">OTTER_CU_DCDR_PAIR</text>
<text xml:space="preserve" text-anchor="middle" x="611.12" y="-897.6" font-family="Helvetica,sans-Serif" font-size="12.00">(CU_DCDR)</text>
</g>
<!-- OTTER_MCU&#45;&gt;OTTER_CU_DCDR_PAIR -->
<g id="edge13" class="edge">
<title>OTTER_MCU&#45;&gt;OTTER_CU_DCDR_PAIR</title>
<path fill="none" stroke="#5c677d" stroke-width="1.2" d="M190.69,-815.89C320.39,-815.89 536,-815.89 536,-815.89 536,-815.89 536,-880.79 536,-880.79"/>
<polygon fill="#5c677d" stroke="#5c677d" stroke-width="1.2" points="533.2,-880.79 536,-888.79 538.8,-880.79 533.2,-880.79"/>
</g>
<!-- ATOMIC_DECODE_SLOT0 -->
<g id="node15" class="node">
<title>ATOMIC_DECODE_SLOT0</title>
<path fill="#ffffff" stroke="#264653" d="M422.38,-859C422.38,-859 281.12,-859 281.12,-859 275.12,-859 269.12,-853 269.12,-847 269.12,-847 269.12,-835 269.12,-835 269.12,-829 275.12,-823 281.12,-823 281.12,-823 422.38,-823 422.38,-823 428.38,-823 434.38,-829 434.38,-835 434.38,-835 434.38,-847 434.38,-847 434.38,-853 428.38,-859 422.38,-859"/>
<text xml:space="preserve" text-anchor="middle" x="351.75" y="-842.35" font-family="Helvetica,sans-Serif" font-size="12.00">ATOMIC_DECODE_SLOT0</text>
<text xml:space="preserve" text-anchor="middle" x="351.75" y="-829.6" font-family="Helvetica,sans-Serif" font-size="12.00">(AtomicDecode)</text>
</g>
<!-- OTTER_MCU&#45;&gt;ATOMIC_DECODE_SLOT0 -->
<g id="edge14" class="edge">
<title>OTTER_MCU&#45;&gt;ATOMIC_DECODE_SLOT0</title>
<path fill="none" stroke="#5c677d" stroke-width="1.2" d="M190.75,-817.67C235.89,-817.67 280,-817.67 280,-817.67 280,-817.67 280,-818.16 280,-818.16"/>
<polygon fill="#5c677d" stroke="#5c677d" stroke-width="1.2" points="277.2,-812.8 280,-820.8 282.8,-812.8 277.2,-812.8"/>
</g>
<!-- ATOMIC_DECODE_SLOT1 -->
<g id="node16" class="node">
<title>ATOMIC_DECODE_SLOT1</title>
<path fill="#ffffff" stroke="#264653" d="M422.38,-927C422.38,-927 281.12,-927 281.12,-927 275.12,-927 269.12,-921 269.12,-915 269.12,-915 269.12,-903 269.12,-903 269.12,-897 275.12,-891 281.12,-891 281.12,-891 422.38,-891 422.38,-891 428.38,-891 434.38,-897 434.38,-903 434.38,-903 434.38,-915 434.38,-915 434.38,-921 428.38,-927 422.38,-927"/>
<text xml:space="preserve" text-anchor="middle" x="351.75" y="-910.35" font-family="Helvetica,sans-Serif" font-size="12.00">ATOMIC_DECODE_SLOT1</text>
<text xml:space="preserve" text-anchor="middle" x="351.75" y="-897.6" font-family="Helvetica,sans-Serif" font-size="12.00">(AtomicDecode)</text>
</g>
<!-- OTTER_MCU&#45;&gt;ATOMIC_DECODE_SLOT1 -->
<g id="edge15" class="edge">
<title>OTTER_MCU&#45;&gt;ATOMIC_DECODE_SLOT1</title>
<path fill="none" stroke="#5c677d" stroke-width="1.2" d="M163,-828.34C163,-859.81 163,-915 163,-915 163,-915 258.87,-915 258.87,-915"/>
<polygon fill="#5c677d" stroke="#5c677d" stroke-width="1.2" points="258.87,-917.8 266.87,-915 258.87,-912.2 258.87,-917.8"/>
</g>
<!-- OTTER_DUAL_ISSUE -->
<g id="node17" class="node">
<title>OTTER_DUAL_ISSUE</title>
<path fill="#ffffff" stroke="#264653" d="M923.12,-825C923.12,-825 806.62,-825 806.62,-825 800.62,-825 794.62,-819 794.62,-813 794.62,-813 794.62,-801 794.62,-801 794.62,-795 800.62,-789 806.62,-789 806.62,-789 923.12,-789 923.12,-789 929.12,-789 935.12,-795 935.12,-801 935.12,-801 935.12,-813 935.12,-813 935.12,-819 929.12,-825 923.12,-825"/>
<text xml:space="preserve" text-anchor="middle" x="864.88" y="-808.35" font-family="Helvetica,sans-Serif" font-size="12.00">OTTER_DUAL_ISSUE</text>
<text xml:space="preserve" text-anchor="middle" x="864.88" y="-795.6" font-family="Helvetica,sans-Serif" font-size="12.00">(DualIssueInOrder)</text>
</g>
<!-- OTTER_MCU&#45;&gt;OTTER_DUAL_ISSUE -->
<g id="edge16" class="edge">
<title>OTTER_MCU&#45;&gt;OTTER_DUAL_ISSUE</title>
<path fill="none" stroke="#5c677d" stroke-width="1.2" d="M190.56,-805.22C190.56,-805.22 784.4,-805.22 784.4,-805.22"/>
<polygon fill="#5c677d" stroke="#5c677d" stroke-width="1.2" points="784.4,-808.02 792.4,-805.22 784.4,-802.42 784.4,-808.02"/>
</g>
<!-- OTTER_HAZARD -->
<g id="node18" class="node">
<title>OTTER_HAZARD</title>
<path fill="#ffffff" stroke="#264653" d="M656.62,-859C656.62,-859 565.62,-859 565.62,-859 559.62,-859 553.62,-853 553.62,-847 553.62,-847 553.62,-835 553.62,-835 553.62,-829 559.62,-823 565.62,-823 565.62,-823 656.62,-823 656.62,-823 662.62,-823 668.62,-829 668.62,-835 668.62,-835 668.62,-847 668.62,-847 668.62,-853 662.62,-859 656.62,-859"/>
<text xml:space="preserve" text-anchor="middle" x="611.12" y="-842.35" font-family="Helvetica,sans-Serif" font-size="12.00">OTTER_HAZARD</text>
<text xml:space="preserve" text-anchor="middle" x="611.12" y="-829.6" font-family="Helvetica,sans-Serif" font-size="12.00">(Hazard)</text>
</g>
<!-- OTTER_MCU&#45;&gt;OTTER_HAZARD -->
<g id="edge17" class="edge">
<title>OTTER_MCU&#45;&gt;OTTER_HAZARD</title>
<path fill="none" stroke="#5c677d" stroke-width="1.2" d="M190.85,-814.11C340.07,-814.11 611,-814.11 611,-814.11 611,-814.11 611,-814.96 611,-814.96"/>
<polygon fill="#5c677d" stroke="#5c677d" stroke-width="1.2" points="608.2,-812.8 611,-820.8 613.8,-812.8 608.2,-812.8"/>
</g>
<!-- OTTER_IMGEN -->
<g id="node19" class="node">
<title>OTTER_IMGEN</title>
<path fill="#ffffff" stroke="#264653" d="M405.88,-521C405.88,-521 297.62,-521 297.62,-521 291.62,-521 285.62,-515 285.62,-509 285.62,-509 285.62,-497 285.62,-497 285.62,-491 291.62,-485 297.62,-485 297.62,-485 405.88,-485 405.88,-485 411.88,-485 417.88,-491 417.88,-497 417.88,-497 417.88,-509 417.88,-509 417.88,-515 411.88,-521 405.88,-521"/>
<text xml:space="preserve" text-anchor="middle" x="351.75" y="-504.35" font-family="Helvetica,sans-Serif" font-size="12.00">OTTER_IMGEN</text>
<text xml:space="preserve" text-anchor="middle" x="351.75" y="-491.6" font-family="Helvetica,sans-Serif" font-size="12.00">(ImmediateGenerator)</text>
</g>
<!-- OTTER_MCU&#45;&gt;OTTER_IMGEN -->
<g id="edge18" class="edge">
<title>OTTER_MCU&#45;&gt;OTTER_IMGEN</title>
<path fill="none" stroke="#5c677d" stroke-width="1.2" d="M119,-785.62C119,-716.43 119,-503 119,-503 119,-503 275.55,-503 275.55,-503"/>
<polygon fill="#5c677d" stroke="#5c677d" stroke-width="1.2" points="275.55,-505.8 283.55,-503 275.55,-500.2 275.55,-505.8"/>
</g>
<!-- OTTER_IMGEN_PAIR -->
<g id="node20" class="node">
<title>OTTER_IMGEN_PAIR</title>
<path fill="#ffffff" stroke="#264653" d="M408.12,-453C408.12,-453 295.38,-453 295.38,-453 289.38,-453 283.38,-447 283.38,-441 283.38,-441 283.38,-429 283.38,-429 283.38,-423 289.38,-417 295.38,-417 295.38,-417 408.12,-417 408.12,-417 414.12,-417 420.12,-423 420.12,-429 420.12,-429 420.12,-441 420.12,-441 420.12,-447 414.12,-453 408.12,-453"/>
<text xml:space="preserve" text-anchor="middle" x="351.75" y="-436.35" font-family="Helvetica,sans-Serif" font-size="12.00">OTTER_IMGEN_PAIR</text>
<text xml:space="preserve" text-anchor="middle" x="351.75" y="-423.6" font-family="Helvetica,sans-Serif" font-size="12.00">(ImmediateGenerator)</text>
</g>
<!-- OTTER_MCU&#45;&gt;OTTER_IMGEN_PAIR -->
<g id="edge19" class="edge">
<title>OTTER_MCU&#45;&gt;OTTER_IMGEN_PAIR</title>
<path fill="none" stroke="#5c677d" stroke-width="1.2" d="M95,-785.66C95,-706.62 95,-435 95,-435 95,-435 273.13,-435 273.13,-435"/>
<polygon fill="#5c677d" stroke="#5c677d" stroke-width="1.2" points="273.13,-437.8 281.13,-435 273.13,-432.2 273.13,-437.8"/>
</g>
<!-- OTTER_ALU -->
<g id="node21" class="node">
<title>OTTER_ALU</title>
<path fill="#ffffff" stroke="#264653" d="M643.12,-589C643.12,-589 579.12,-589 579.12,-589 573.12,-589 567.12,-583 567.12,-577 567.12,-577 567.12,-565 567.12,-565 567.12,-559 573.12,-553 579.12,-553 579.12,-553 643.12,-553 643.12,-553 649.12,-553 655.12,-559 655.12,-565 655.12,-565 655.12,-577 655.12,-577 655.12,-583 649.12,-589 643.12,-589"/>
<text xml:space="preserve" text-anchor="middle" x="611.12" y="-572.35" font-family="Helvetica,sans-Serif" font-size="12.00">OTTER_ALU</text>
<text xml:space="preserve" text-anchor="middle" x="611.12" y="-559.6" font-family="Helvetica,sans-Serif" font-size="12.00">(ALU)</text>
</g>
<!-- OTTER_MCU&#45;&gt;OTTER_ALU -->
<g id="edge20" class="edge">
<title>OTTER_MCU&#45;&gt;OTTER_ALU</title>
<path fill="none" stroke="#5c677d" stroke-width="1.2" d="M190.72,-798.11C315.5,-798.11 518,-798.11 518,-798.11 518,-798.11 518,-571 518,-571 518,-571 556.93,-571 556.93,-571"/>
<polygon fill="#5c677d" stroke="#5c677d" stroke-width="1.2" points="556.93,-573.8 564.93,-571 556.93,-568.2 556.93,-573.8"/>
</g>
<!-- OTTER_ALU_PAIR -->
<g id="node22" class="node">
<title>OTTER_ALU_PAIR</title>
<path fill="#ffffff" stroke="#264653" d="M660,-453C660,-453 562.25,-453 562.25,-453 556.25,-453 550.25,-447 550.25,-441 550.25,-441 550.25,-429 550.25,-429 550.25,-423 556.25,-417 562.25,-417 562.25,-417 660,-417 660,-417 666,-417 672,-423 672,-429 672,-429 672,-441 672,-441 672,-447 666,-453 660,-453"/>
<text xml:space="preserve" text-anchor="middle" x="611.12" y="-436.35" font-family="Helvetica,sans-Serif" font-size="12.00">OTTER_ALU_PAIR</text>
<text xml:space="preserve" text-anchor="middle" x="611.12" y="-423.6" font-family="Helvetica,sans-Serif" font-size="12.00">(ALU)</text>
</g>
<!-- OTTER_MCU&#45;&gt;OTTER_ALU_PAIR -->
<g id="edge21" class="edge">
<title>OTTER_MCU&#45;&gt;OTTER_ALU_PAIR</title>
<path fill="none" stroke="#5c677d" stroke-width="1.2" d="M190.77,-796.33C300.39,-796.33 465,-796.33 465,-796.33 465,-796.33 465,-441 465,-441 465,-441 540.19,-441 540.19,-441"/>
<polygon fill="#5c677d" stroke="#5c677d" stroke-width="1.2" points="540.19,-443.8 548.19,-441 540.19,-438.2 540.19,-443.8"/>
</g>
<!-- OTTER_BRANCH_GEN_EX1 -->
<g id="node23" class="node">
<title>OTTER_BRANCH_GEN_EX1</title>
<path fill="#ffffff" stroke="#264653" d="M429.5,-589C429.5,-589 274,-589 274,-589 268,-589 262,-583 262,-577 262,-577 262,-565 262,-565 262,-559 268,-553 274,-553 274,-553 429.5,-553 429.5,-553 435.5,-553 441.5,-559 441.5,-565 441.5,-565 441.5,-577 441.5,-577 441.5,-583 435.5,-589 429.5,-589"/>
<text xml:space="preserve" text-anchor="middle" x="351.75" y="-572.35" font-family="Helvetica,sans-Serif" font-size="12.00">OTTER_BRANCH_GEN_EX1</text>
<text xml:space="preserve" text-anchor="middle" x="351.75" y="-559.6" font-family="Helvetica,sans-Serif" font-size="12.00">(BranchGenerator)</text>
</g>
<!-- OTTER_MCU&#45;&gt;OTTER_BRANCH_GEN_EX1 -->
<g id="edge22" class="edge">
<title>OTTER_MCU&#45;&gt;OTTER_BRANCH_GEN_EX1</title>
<path fill="none" stroke="#5c677d" stroke-width="1.2" d="M190.5,-792.78C229.67,-792.78 266,-792.78 266,-792.78 266,-792.78 266,-598.97 266,-598.97"/>
<polygon fill="#5c677d" stroke="#5c677d" stroke-width="1.2" points="268.8,-598.97 266,-590.97 263.2,-598.97 268.8,-598.97"/>
</g>
<!-- ATOMIC_CTRL -->
<g id="node24" class="node">
<title>ATOMIC_CTRL</title>
<path fill="#ffffff" stroke="#264653" d="M396.12,-385C396.12,-385 307.38,-385 307.38,-385 301.38,-385 295.38,-379 295.38,-373 295.38,-373 295.38,-361 295.38,-361 295.38,-355 301.38,-349 307.38,-349 307.38,-349 396.12,-349 396.12,-349 402.12,-349 408.12,-355 408.12,-361 408.12,-361 408.12,-373 408.12,-373 408.12,-379 402.12,-385 396.12,-385"/>
<text xml:space="preserve" text-anchor="middle" x="351.75" y="-368.35" font-family="Helvetica,sans-Serif" font-size="12.00">ATOMIC_CTRL</text>
<text xml:space="preserve" text-anchor="middle" x="351.75" y="-355.6" font-family="Helvetica,sans-Serif" font-size="12.00">(AtomicController)</text>
</g>
<!-- OTTER_MCU&#45;&gt;ATOMIC_CTRL -->
<g id="edge23" class="edge">
<title>OTTER_MCU&#45;&gt;ATOMIC_CTRL</title>
<path fill="none" stroke="#5c677d" stroke-width="1.2" d="M71,-785.79C71,-697.15 71,-361 71,-361 71,-361 285.12,-361 285.12,-361"/>
<polygon fill="#5c677d" stroke="#5c677d" stroke-width="1.2" points="285.12,-363.8 293.12,-361 285.12,-358.2 285.12,-363.8"/>
</g>
<!-- OTTER_STORE_BUFFER -->
<g id="node25" class="node">
<title>OTTER_STORE_BUFFER</title>
<path fill="#ffffff" stroke="#264653" d="M680.25,-188C680.25,-188 542,-188 542,-188 536,-188 530,-182 530,-176 530,-176 530,-164 530,-164 530,-158 536,-152 542,-152 542,-152 680.25,-152 680.25,-152 686.25,-152 692.25,-158 692.25,-164 692.25,-164 692.25,-176 692.25,-176 692.25,-182 686.25,-188 680.25,-188"/>
<text xml:space="preserve" text-anchor="middle" x="611.12" y="-171.35" font-family="Helvetica,sans-Serif" font-size="12.00">OTTER_STORE_BUFFER</text>
<text xml:space="preserve" text-anchor="middle" x="611.12" y="-158.6" font-family="Helvetica,sans-Serif" font-size="12.00">(StoreBuffer)</text>
</g>
<!-- OTTER_MCU&#45;&gt;OTTER_STORE_BUFFER -->
<g id="edge24" class="edge">
<title>OTTER_MCU&#45;&gt;OTTER_STORE_BUFFER</title>
<path fill="none" stroke="#5c677d" stroke-width="1.2" d="M190.71,-799.89C322.84,-799.89 545,-799.89 545,-799.89 545,-799.89 545,-197.99 545,-197.99"/>
<polygon fill="#5c677d" stroke="#5c677d" stroke-width="1.2" points="547.8,-197.99 545,-189.99 542.2,-197.99 547.8,-197.99"/>
</g>
<!-- OTTER_DCACHE -->
<g id="node26" class="node">
<title>OTTER_DCACHE</title>
<path fill="#ffffff" stroke="#264653" d="M911.12,-52C911.12,-52 818.62,-52 818.62,-52 812.62,-52 806.62,-46 806.62,-40 806.62,-40 806.62,-28 806.62,-28 806.62,-22 812.62,-16 818.62,-16 818.62,-16 911.12,-16 911.12,-16 917.12,-16 923.12,-22 923.12,-28 923.12,-28 923.12,-40 923.12,-40 923.12,-46 917.12,-52 911.12,-52"/>
<text xml:space="preserve" text-anchor="middle" x="864.88" y="-35.35" font-family="Helvetica,sans-Serif" font-size="12.00">OTTER_DCACHE</text>
<text xml:space="preserve" text-anchor="middle" x="864.88" y="-22.6" font-family="Helvetica,sans-Serif" font-size="12.00">(datacache)</text>
</g>
<!-- OTTER_MCU&#45;&gt;OTTER_DCACHE -->
<g id="edge25" class="edge">
<title>OTTER_MCU&#45;&gt;OTTER_DCACHE</title>
<path fill="none" stroke="#5c677d" stroke-width="1.2" d="M190.72,-803.44C366.52,-803.44 723,-803.44 723,-803.44 723,-803.44 723,-40 723,-40 723,-40 796.53,-40 796.53,-40"/>
<polygon fill="#5c677d" stroke="#5c677d" stroke-width="1.2" points="796.53,-42.8 804.53,-40 796.53,-37.2 796.53,-42.8"/>
</g>
<!-- OTTER_L2CACHE -->
<g id="node27" class="node">
<title>OTTER_L2CACHE</title>
<path fill="#ffffff" stroke="#264653" d="M1130,-52C1130,-52 1033,-52 1033,-52 1027,-52 1021,-46 1021,-40 1021,-40 1021,-28 1021,-28 1021,-22 1027,-16 1033,-16 1033,-16 1130,-16 1130,-16 1136,-16 1142,-22 1142,-28 1142,-28 1142,-40 1142,-40 1142,-46 1136,-52 1130,-52"/>
<text xml:space="preserve" text-anchor="middle" x="1081.5" y="-35.35" font-family="Helvetica,sans-Serif" font-size="12.00">OTTER_L2CACHE</text>
<text xml:space="preserve" text-anchor="middle" x="1081.5" y="-22.6" font-family="Helvetica,sans-Serif" font-size="12.00">(l2cache)</text>
</g>
<!-- OTTER_MCU&#45;&gt;OTTER_L2CACHE -->
<g id="edge26" class="edge">
<title>OTTER_MCU&#45;&gt;OTTER_L2CACHE</title>
<path fill="none" stroke="#5c677d" stroke-width="1.2" d="M166,-785.86C166,-765.9 166,-739 166,-739 166,-739 1081,-739 1081,-739 1081,-739 1081,-62.31 1081,-62.31"/>
<polygon fill="#5c677d" stroke="#5c677d" stroke-width="1.2" points="1083.8,-62.31 1081,-54.31 1078.2,-62.31 1083.8,-62.31"/>
</g>
<!-- OTTER_DCACHE_FSM -->
<g id="node28" class="node">
<title>OTTER_DCACHE_FSM</title>
<path fill="#ffffff" stroke="#264653" d="M673.5,-52C673.5,-52 548.75,-52 548.75,-52 542.75,-52 536.75,-46 536.75,-40 536.75,-40 536.75,-28 536.75,-28 536.75,-22 542.75,-16 548.75,-16 548.75,-16 673.5,-16 673.5,-16 679.5,-16 685.5,-22 685.5,-28 685.5,-28 685.5,-40 685.5,-40 685.5,-46 679.5,-52 673.5,-52"/>
<text xml:space="preserve" text-anchor="middle" x="611.12" y="-35.35" font-family="Helvetica,sans-Serif" font-size="12.00">OTTER_DCACHE_FSM</text>
<text xml:space="preserve" text-anchor="middle" x="611.12" y="-22.6" font-family="Helvetica,sans-Serif" font-size="12.00">(datacachefsm)</text>
</g>
<!-- OTTER_MCU&#45;&gt;OTTER_DCACHE_FSM -->
<g id="edge27" class="edge">
<title>OTTER_MCU&#45;&gt;OTTER_DCACHE_FSM</title>
<path fill="none" stroke="#5c677d" stroke-width="1.2" d="M24,-785.92C24,-662.03 24,-34 24,-34 24,-34 526.65,-34 526.65,-34"/>
<polygon fill="#5c677d" stroke="#5c677d" stroke-width="1.2" points="526.65,-36.8 534.65,-34 526.65,-31.2 526.65,-36.8"/>
</g>
<!-- OTTER_MEMORY -->
<g id="node29" class="node">
<title>OTTER_MEMORY</title>
<path fill="#ffffff" stroke="#264653" d="M657.75,-120C657.75,-120 564.5,-120 564.5,-120 558.5,-120 552.5,-114 552.5,-108 552.5,-108 552.5,-96 552.5,-96 552.5,-90 558.5,-84 564.5,-84 564.5,-84 657.75,-84 657.75,-84 663.75,-84 669.75,-90 669.75,-96 669.75,-96 669.75,-108 669.75,-108 669.75,-114 663.75,-120 657.75,-120"/>
<text xml:space="preserve" text-anchor="middle" x="611.12" y="-103.35" font-family="Helvetica,sans-Serif" font-size="12.00">OTTER_MEMORY</text>
<text xml:space="preserve" text-anchor="middle" x="611.12" y="-90.6" font-family="Helvetica,sans-Serif" font-size="12.00">(Memory)</text>
</g>
<!-- OTTER_MCU&#45;&gt;OTTER_MEMORY -->
<g id="edge28" class="edge">
<title>OTTER_MCU&#45;&gt;OTTER_MEMORY</title>
<path fill="none" stroke="#5c677d" stroke-width="1.2" d="M47,-785.9C47,-668.6 47,-102 47,-102 47,-102 542.27,-102 542.27,-102"/>
<polygon fill="#5c677d" stroke="#5c677d" stroke-width="1.2" points="542.27,-104.8 550.27,-102 542.27,-99.2 542.27,-104.8"/>
</g>
<!-- FETCH_SLOT0_EXPANDER&#45;&gt;FETCH_SLOT0_BUILDER -->
<g id="edge29" class="edge">
<title>FETCH_SLOT0_EXPANDER&#45;&gt;FETCH_SLOT0_BUILDER</title>
<path fill="none" stroke="#2a9d8f" stroke-width="1.2" d="M699.16,-1310C699.16,-1310 773.56,-1310 773.56,-1310"/>
<polygon fill="#2a9d8f" stroke="#2a9d8f" stroke-width="1.2" points="773.56,-1312.8 781.56,-1310 773.56,-1307.2 773.56,-1312.8"/>
</g>
<!-- FETCH_SLOT1_EXPANDER&#45;&gt;FETCH_SLOT1_BUILDER -->
<g id="edge30" class="edge">
<title>FETCH_SLOT1_EXPANDER&#45;&gt;FETCH_SLOT1_BUILDER</title>
<path fill="none" stroke="#2a9d8f" stroke-width="1.2" d="M699.32,-1165C743.2,-1165 787,-1165 787,-1165 787,-1165 787,-1204.96 787,-1204.96"/>
<polygon fill="#2a9d8f" stroke="#2a9d8f" stroke-width="1.2" points="784.2,-1204.96 787,-1212.96 789.8,-1204.96 784.2,-1204.96"/>
</g>
<!-- OTTER_BRANCH_PREDICTOR&#45;&gt;FETCH_SLOT0_BUILDER -->
<g id="edge31" class="edge">
<title>OTTER_BRANCH_PREDICTOR&#45;&gt;FETCH_SLOT0_BUILDER</title>
<path fill="none" stroke="#2a9d8f" stroke-width="1.2" d="M702,-1251.22C702,-1271.37 702,-1301 702,-1301 702,-1301 773.62,-1301 773.62,-1301"/>
<polygon fill="#2a9d8f" stroke="#2a9d8f" stroke-width="1.2" points="773.62,-1303.8 781.62,-1301 773.62,-1298.2 773.62,-1303.8"/>
</g>
<!-- OTTER_BRANCH_PREDICTOR&#45;&gt;FETCH_SLOT1_BUILDER -->
<g id="edge32" class="edge">
<title>OTTER_BRANCH_PREDICTOR&#45;&gt;FETCH_SLOT1_BUILDER</title>
<path fill="none" stroke="#2a9d8f" stroke-width="1.2" d="M709.23,-1233C709.23,-1233 773.66,-1233 773.66,-1233"/>
<polygon fill="#2a9d8f" stroke="#2a9d8f" stroke-width="1.2" points="773.66,-1235.8 781.66,-1233 773.66,-1230.2 773.66,-1235.8"/>
</g>
<!-- OTTER_CACHE&#45;&gt;OTTER_IMEM -->
<g id="edge33" class="edge">
<title>OTTER_CACHE&#45;&gt;OTTER_IMEM</title>
<path fill="none" stroke="#2a9d8f" stroke-width="1.2" d="M665.19,-1378C686.06,-1378 705,-1378 705,-1378 705,-1378 705,-1443 705,-1443 705,-1443 807.52,-1443 807.52,-1443"/>
<polygon fill="#2a9d8f" stroke="#2a9d8f" stroke-width="1.2" points="807.52,-1445.8 815.52,-1443 807.52,-1440.2 807.52,-1445.8"/>
</g>
<!-- OTTER_CACHE&#45;&gt;OTTER_IMEM_PREFETCH -->
<g id="edge34" class="edge">
<title>OTTER_CACHE&#45;&gt;OTTER_IMEM_PREFETCH</title>
<path fill="none" stroke="#2a9d8f" stroke-width="1.2" d="M665.25,-1369C665.25,-1369 770.56,-1369 770.56,-1369"/>
<polygon fill="#2a9d8f" stroke="#2a9d8f" stroke-width="1.2" points="770.56,-1371.8 778.56,-1369 770.56,-1366.2 770.56,-1371.8"/>
</g>
<!-- OTTER_CSR_FILE&#45;&gt;OTTER_CU_DCDR -->
<g id="edge48" class="edge">
<title>OTTER_CSR_FILE&#45;&gt;OTTER_CU_DCDR</title>
<path fill="none" stroke="#2a9d8f" stroke-width="1.2" d="M413.22,-773C413.22,-773 538.48,-773 538.48,-773"/>
<polygon fill="#2a9d8f" stroke="#2a9d8f" stroke-width="1.2" points="538.48,-775.8 546.48,-773 538.48,-770.2 538.48,-775.8"/>
</g>
<!-- OTTER_REG_FILE&#45;&gt;OTTER_ALU -->
<g id="edge38" class="edge">
<title>OTTER_REG_FILE&#45;&gt;OTTER_ALU</title>
<path fill="none" stroke="#2a9d8f" stroke-width="1.2" d="M413.19,-711C489.85,-711 611,-711 611,-711 611,-711 611,-599.12 611,-599.12"/>
<polygon fill="#2a9d8f" stroke="#2a9d8f" stroke-width="1.2" points="613.8,-599.12 611,-591.12 608.2,-599.12 613.8,-599.12"/>
</g>
<!-- OTTER_REG_FILE&#45;&gt;OTTER_ALU_PAIR -->
<g id="edge39" class="edge">
<title>OTTER_REG_FILE&#45;&gt;OTTER_ALU_PAIR</title>
<path fill="none" stroke="#2a9d8f" stroke-width="1.2" d="M413.37,-699C474.46,-699 559,-699 559,-699 559,-699 559,-462.96 559,-462.96"/>
<polygon fill="#2a9d8f" stroke="#2a9d8f" stroke-width="1.2" points="561.8,-462.96 559,-454.96 556.2,-462.96 561.8,-462.96"/>
</g>
<!-- OTTER_CU_DCDR&#45;&gt;OTTER_DUAL_ISSUE -->
<g id="edge35" class="edge">
<title>OTTER_CU_DCDR&#45;&gt;OTTER_DUAL_ISSUE</title>
<path fill="none" stroke="#2a9d8f" stroke-width="1.2" d="M673.82,-772C729.13,-772 801,-772 801,-772 801,-772 801,-778.86 801,-778.86"/>
<polygon fill="#2a9d8f" stroke="#2a9d8f" stroke-width="1.2" points="798.2,-778.86 801,-786.86 803.8,-778.86 798.2,-778.86"/>
</g>
<!-- OTTER_CU_DCDR_PAIR&#45;&gt;OTTER_DUAL_ISSUE -->
<g id="edge36" class="edge">
<title>OTTER_CU_DCDR_PAIR&#45;&gt;OTTER_DUAL_ISSUE</title>
<path fill="none" stroke="#2a9d8f" stroke-width="1.2" d="M682,-890.81C682,-865.1 682,-821.22 682,-821.22 682,-821.22 784.35,-821.22 784.35,-821.22"/>
<polygon fill="#2a9d8f" stroke="#2a9d8f" stroke-width="1.2" points="784.35,-824.02 792.35,-821.22 784.35,-818.42 784.35,-824.02"/>
</g>
<!-- ATOMIC_DECODE_SLOT0&#45;&gt;ATOMIC_CTRL -->
<g id="edge49" class="edge">
<title>ATOMIC_DECODE_SLOT0&#45;&gt;ATOMIC_CTRL</title>
<path fill="none" stroke="#2a9d8f" stroke-width="1.2" d="M434.76,-841C463.66,-841 489,-841 489,-841 489,-841 489,-373 489,-373 489,-373 418.18,-373 418.18,-373"/>
<polygon fill="#2a9d8f" stroke="#2a9d8f" stroke-width="1.2" points="418.18,-370.2 410.18,-373 418.18,-375.8 418.18,-370.2"/>
</g>
<!-- ATOMIC_DECODE_SLOT1&#45;&gt;ATOMIC_CTRL -->
<g id="edge50" class="edge">
<title>ATOMIC_DECODE_SLOT1&#45;&gt;ATOMIC_CTRL</title>
<path fill="none" stroke="#2a9d8f" stroke-width="1.2" d="M268.92,-903C245.38,-903 226,-903 226,-903 226,-903 226,-373 226,-373 226,-373 285.31,-373 285.31,-373"/>
<polygon fill="#2a9d8f" stroke="#2a9d8f" stroke-width="1.2" points="285.31,-375.8 293.31,-373 285.31,-370.2 285.31,-375.8"/>
</g>
<!-- OTTER_HAZARD&#45;&gt;OTTER_DUAL_ISSUE -->
<g id="edge37" class="edge">
<title>OTTER_HAZARD&#45;&gt;OTTER_DUAL_ISSUE</title>
<path fill="none" stroke="#2a9d8f" stroke-width="1.2" d="M640,-822.81C640,-820.79 640,-819.44 640,-819.44 640,-819.44 784.52,-819.44 784.52,-819.44"/>
<polygon fill="#2a9d8f" stroke="#2a9d8f" stroke-width="1.2" points="784.52,-822.24 792.52,-819.44 784.52,-816.64 784.52,-822.24"/>
</g>
<!-- OTTER_IMGEN&#45;&gt;OTTER_ALU -->
<g id="edge40" class="edge">
<title>OTTER_IMGEN&#45;&gt;OTTER_ALU</title>
<path fill="none" stroke="#2a9d8f" stroke-width="1.2" d="M418.18,-503C494.99,-503 611,-503 611,-503 611,-503 611,-542.96 611,-542.96"/>
<polygon fill="#2a9d8f" stroke="#2a9d8f" stroke-width="1.2" points="608.2,-542.96 611,-550.96 613.8,-542.96 608.2,-542.96"/>
</g>
<!-- OTTER_IMGEN_PAIR&#45;&gt;OTTER_ALU_PAIR -->
<g id="edge41" class="edge">
<title>OTTER_IMGEN_PAIR&#45;&gt;OTTER_ALU_PAIR</title>
<path fill="none" stroke="#2a9d8f" stroke-width="1.2" d="M420.58,-429C420.58,-429 540.13,-429 540.13,-429"/>
<polygon fill="#2a9d8f" stroke="#2a9d8f" stroke-width="1.2" points="540.13,-431.8 548.13,-429 540.13,-426.2 540.13,-431.8"/>
</g>
<!-- OTTER_BRANCH_GEN_EX1&#45;&gt;OTTER_BRANCH_PREDICTOR -->
<g id="edge42" class="edge">
<title>OTTER_BRANCH_GEN_EX1&#45;&gt;OTTER_BRANCH_PREDICTOR</title>
<path fill="none" stroke="#2a9d8f" stroke-width="1.2" d="M438,-589.23C438,-695.18 438,-1227 438,-1227 438,-1227 503.36,-1227 503.36,-1227"/>
<polygon fill="#2a9d8f" stroke="#2a9d8f" stroke-width="1.2" points="503.36,-1229.8 511.36,-1227 503.36,-1224.2 503.36,-1229.8"/>
</g>
<!-- ATOMIC_CTRL&#45;&gt;OTTER_STORE_BUFFER -->
<g id="edge47" class="edge">
<title>ATOMIC_CTRL&#45;&gt;OTTER_STORE_BUFFER</title>
<path fill="none" stroke="#2a9d8f" stroke-width="1.2" d="M408.49,-361C463.92,-361 540,-361 540,-361 540,-361 540,-198.13 540,-198.13"/>
<polygon fill="#2a9d8f" stroke="#2a9d8f" stroke-width="1.2" points="542.8,-198.13 540,-190.13 537.2,-198.13 542.8,-198.13"/>
</g>
<!-- OTTER_STORE_BUFFER&#45;&gt;OTTER_DCACHE -->
<g id="edge43" class="edge">
<title>OTTER_STORE_BUFFER&#45;&gt;OTTER_DCACHE</title>
<path fill="none" stroke="#2a9d8f" stroke-width="1.2" d="M692.63,-170C773.03,-170 884,-170 884,-170 884,-170 884,-62.16 884,-62.16"/>
<polygon fill="#2a9d8f" stroke="#2a9d8f" stroke-width="1.2" points="886.8,-62.16 884,-54.16 881.2,-62.16 886.8,-62.16"/>
</g>
<!-- OTTER_DCACHE&#45;&gt;OTTER_L2CACHE -->
<g id="edge44" class="edge">
<title>OTTER_DCACHE&#45;&gt;OTTER_L2CACHE</title>
<path fill="none" stroke="#2a9d8f" stroke-width="1.2" d="M923.5,-34C923.5,-34 1010.75,-34 1010.75,-34"/>
<polygon fill="#2a9d8f" stroke="#2a9d8f" stroke-width="1.2" points="1010.75,-36.8 1018.75,-34 1010.75,-31.2 1010.75,-36.8"/>
</g>
<!-- OTTER_DCACHE_FSM&#45;&gt;OTTER_DCACHE -->
<g id="edge45" class="edge">
<title>OTTER_DCACHE_FSM&#45;&gt;OTTER_DCACHE</title>
<path fill="none" stroke="#2a9d8f" stroke-width="1.2" d="M685.89,-28C685.89,-28 796.51,-28 796.51,-28"/>
<polygon fill="#2a9d8f" stroke="#2a9d8f" stroke-width="1.2" points="796.51,-30.8 804.51,-28 796.51,-25.2 796.51,-30.8"/>
</g>
<!-- OTTER_MEMORY&#45;&gt;OTTER_DCACHE -->
<g id="edge46" class="edge">
<title>OTTER_MEMORY&#45;&gt;OTTER_DCACHE</title>
<path fill="none" stroke="#2a9d8f" stroke-width="1.2" d="M670.14,-102C739.43,-102 845,-102 845,-102 845,-102 845,-62.04 845,-62.04"/>
<polygon fill="#2a9d8f" stroke="#2a9d8f" stroke-width="1.2" points="847.8,-62.04 845,-54.04 842.2,-62.04 847.8,-62.04"/>
</g>
</g>
</svg>
